<?xml version="1.0" encoding="UTF-8"?>
<!DOCTYPE svg PUBLIC "-//W3C//DTD SVG 1.1//EN" "http://www.w3.org/Graphics/SVG/1.1/DTD/svg11.dtd">
<!-- Creator: CorelDRAW -->
<svg xmlns="http://www.w3.org/2000/svg" xml:space="preserve" width="10.4116in" height="5.36in" style="shape-rendering:geometricPrecision; text-rendering:geometricPrecision; image-rendering:optimizeQuality; fill-rule:evenodd; clip-rule:evenodd"
viewBox="0 0 10.3427 5.32451"
 xmlns:xlink="http://www.w3.org/1999/xlink">
 <defs>
  <style type="text/css">
   <![CDATA[
    .fil6 {fill:#B4B6B8}
    .fil3 {fill:#CACDD0}
    .fil8 {fill:#D1D3D7}
    .fil2 {fill:#D6D8D9}
    .fil7 {fill:#ECECEE}
    .fil0 {fill:#F0F1F2}
    .fil1 {fill:#EFF0F1}
    .fil9 {fill:#F6F7F8}
    .fil5 {fill:#F8F7F7}
    .fil4 {fill:#F8F8F8}
   ]]>
  </style>
    <clipPath id="id0">
     <path d="M2.55683 0.049794c-0.00955833,0 -0.0173841,-0.00782187 -0.0173841,-0.0175054 3.91094e-006,-0.0096913 0.00782578,-0.0173841 0.0173841,-0.0173841 0.00968739,-3.91094e-006 0.0175093,0.00769672 0.0175093,0.0173841 0,0.00967957 -0.00782187,0.0175054 -0.0175093,0.0175054z"/>
    </clipPath>
    <clipPath id="id1">
     <path d="M2.69156 0.304893c-0.00722741,-0.00211191 -0.0125424,-0.00880352 -0.0125424,-0.016688 3.91094e-006,-0.00798222 0.00531105,-0.0146973 0.0125424,-0.0168092l0 0.0334972z"/>
    </clipPath>
    <clipPath id="id2">
     <path d="M2.69156 0.0490979c-0.00722741,-0.00211582 -0.0125424,-0.00882698 -0.0125424,-0.0168092 3.91094e-006,-0.00798613 0.00531105,-0.0146152 0.0125424,-0.0166997l0 0.0335089z"/>
    </clipPath>
 </defs>
 <g id="Layer_x0020_1">
  <metadata id="CorelCorpID_0Corel-Layer"/>
  <g id="_116419280">
   <path id="_77680768" class="fil0" d="M1.48547 2.94127c-0.244617,0 -0.442796,-0.198304 -0.442796,-0.4428 0,-0.244621 0.198179,-0.442921 0.442796,-0.442921 0.244621,-3.91094e-006 0.4428,0.198304 0.4428,0.442921 0,0.244492 -0.198179,0.4428 -0.4428,0.4428z"/>
   <path id="_77680672" class="fil0" d="M9.20712 3.05178c-0.137086,0 -0.248344,-0.111133 -0.248344,-0.248344 0,-0.137086 0.111258,-0.248219 0.248344,-0.248344 0.137211,0.000121239 0.248344,0.111258 0.248344,0.248344l0 0c0,0.137211 -0.111133,0.248344 -0.248344,0.248344m0 -0.482782c-0.064816,0 -0.123304,0.0262033 -0.165769,0.0686682 -0.0424689,0.042465 -0.0687934,0.101078 -0.0687934,0.165769 0,0.0648199 0.0263245,0.123429 0.0687934,0.165894 0.0424728,0.0424689 0.100953,0.0686682 0.165769,0.0686682 0.0648238,0 0.123429,-0.0261994 0.165894,-0.0686682 0.0424728,-0.042465 0.0686682,-0.101074 0.0686682,-0.165894 0,-0.0646947 -0.0261994,-0.1233 -0.0686682,-0.165769 -0.042461,-0.0424689 -0.101074,-0.0686682 -0.165894,-0.0686682m0.248344 0.234437l0 0z"/>
   <path id="_116655112" class="fil0" d="M9.20712 2.92612c-0.0676749,0 -0.122557,-0.0548822 -0.122557,-0.122682 0,-0.0676749 0.0548822,-0.122557 0.122557,-0.122557 0.0678,-3.91094e-006 0.122682,0.0548861 0.122682,0.122557 0,0.0678 -0.0548822,0.122682 -0.122682,0.122682z"/>
   <polygon id="_116656984" class="fil1" points="5.26702,4.20373 5.0707,4.20373 5.16892,4.07658 "/>
   <polygon id="_116656840" class="fil1" points="5.26702,4.39172 5.0707,4.39172 5.16892,4.26457 "/>
   <path id="_116655208" class="fil2" d="M10.0073 1.60853c-0.0206106,0 -0.0377484,-0.00520937 -0.0521523,-0.0136531 -0.0143962,-0.00844762 -0.0261994,-0.0199927 -0.036755,-0.0324099 -0.0211073,-0.0249635 -0.0379948,-0.0536424 -0.0609676,-0.0718948 -0.0152722,-0.0121747 -0.0327815,-0.0199927 -0.0569941,-0.0199927 -0.0182563,-3.91094e-006 -0.0326602,0.0044702 -0.0451987,0.0117954 -0.0125424,0.00732518 -0.0232231,0.0176344 -0.0332782,0.0294298 -0.0201179,0.0235908 -0.0371304,0.0530206 -0.0628331,0.0736351 -0.0170126,0.0137782 -0.0382451,0.0230941 -0.0656881,0.0230941 -0.0204855,-3.91094e-006 -0.0377484,-0.00521328 -0.0521523,-0.013657 -0.0143962,-0.00844762 -0.0261994,-0.0199927 -0.036755,-0.0324099 -0.0211073,-0.0249635 -0.0379948,-0.0536424 -0.0608424,-0.0718948 -0.0152722,-0.0121747 -0.0329066,-0.0199927 -0.0571192,-0.0199927l0 -0.0137861c0.0204933,0 0.0376232,0.00521719 0.0520272,0.0136609 0.0145291,0.0084398 0.0261994,0.0199927 0.0368801,0.0324099 0.0211073,0.0249557 0.0379948,0.0536424 0.0608424,0.0717696 0.0152761,0.0121669 0.0327815,0.0199927 0.0571192,0.0201179 0.0182563,-3.91094e-006 0.0326602,-0.0044702 0.0451987,-0.0117954 0.0125424,-0.0073291 0.0232231,-0.0176344 0.0331569,-0.0294298 0.0202391,-0.0235947 0.0372517,-0.0531457 0.0628292,-0.0736351 0.0169031,-0.0137 0.0380925,-0.0230941 0.0652735,-0.0230941 0.000179903,-3.91094e-006 0.000359806,0 0.000539709,0 0.0204855,-3.91094e-006 0.0376232,0.00521328 0.0520272,0.013657 0.014533,0.0084398 0.0261994,0.0199927 0.0368801,0.0324099 0.0209822,0.0249557 0.0378696,0.0536424 0.0608424,0.0717696 0.0152722,0.0121669 0.0327815,0.0199927 0.0571192,0.0201179 0.0182523,-3.91094e-006 0.0325351,-0.0044702 0.0450735,-0.0117954 0.0125502,-0.0073291 0.0232231,-0.0176344 0.0332782,-0.0294298 0.0201257,-0.0235947 0.0372517,-0.0531457 0.0628331,-0.0736351 0.0169031,-0.0137 0.0380925,-0.0230941 0.0651484,-0.0230941 0.000179903,-3.91094e-006 0.000359806,0 0.000539709,0 0.0206106,-3.91094e-006 0.0377484,0.00521328 0.0521523,0.013657 0.014533,0.0084398 0.0261994,0.0199927 0.0368762,0.0324099 0.0139699,0.016598 0.0261603,0.0348504 0.0394887,0.0505371l7.82187e-006 0.0205129c-0.00363326,-0.0036841 -0.00709835,-0.00751682 -0.0104383,-0.0114473 -0.0211034,-0.0249635 -0.0379987,-0.0536424 -0.0609676,-0.0718948 -0.0152761,-0.0121747 -0.0327815,-0.0199927 -0.0571192,-0.0199927 -0.0182484,-3.91094e-006 -0.0325351,0.0044702 -0.0450775,0.0117954 -0.0125385,0.00732518 -0.0232192,0.0176344 -0.0332782,0.0294298 -0.0201139,0.0235908 -0.0372517,0.0530206 -0.0628292,0.0736351 -0.0170048,0.0137782 -0.0383702,0.0230941 -0.0656881,0.0230902z"/>
   <path id="_116656048" class="fil3" d="M0.285635 4.63461c-0.000179903,0 -0.000355895,3.91094e-006 -0.000535798,3.91094e-006 -0.0206145,-3.91094e-006 -0.0377484,-0.00521719 -0.0521523,-0.0136609 -0.0145291,-0.00844371 -0.0261994,-0.0199927 -0.0368801,-0.0324099 -0.0209861,-0.0249596 -0.0379948,-0.0536424 -0.0608424,-0.0717696 -0.0152722,-0.0121708 -0.0327815,-0.0199927 -0.0571192,-0.0201179 -0.0182563,0 -0.0326602,0.0044702 -0.0451987,0.0117993 -0.0123898,0.00722741 -0.0229572,0.0173841 -0.0329066,0.0289996l0 -0.0203369c0.00389138,-0.00391876 0.00796658,-0.00765761 0.0122921,-0.0111462 0.0171377,-0.0137861 0.0383702,-0.023098 0.0658132,-0.023098 0.0204855,0 0.0376232,0.00521719 0.0521523,0.0136609 0.014404,0.0084398 0.0261994,0.0199888 0.036755,0.032406 0.0211073,0.0249596 0.0379948,0.0536424 0.0608424,0.0718987 0.0153974,0.0121669 0.0329066,0.0199888 0.0572444,0.0199888 0.0182523,0 0.0325312,-0.0044702 0.0451987,-0.0117954 0.0124172,-0.00732518 0.023098,-0.0176305 0.033153,-0.0294298 0.0201179,-0.0235908 0.0372517,-0.0530206 0.0628331,-0.0736312 0.0170126,-0.0137861 0.0383702,-0.023098 0.0658093,-0.023098 0.0204894,0 0.0376232,0.00521719 0.0521523,0.0136609 0.014404,0.0084398 0.0261994,0.0199888 0.036755,0.032406 0.0211112,0.0249596 0.0379987,0.0536424 0.0608464,0.0718987 0.0153974,0.0121669 0.0329027,0.0199888 0.0572405,0.0199888l0 0.0137821c-0.0206106,0 -0.0377484,-0.00521328 -0.0521523,-0.013657 -0.0145252,-0.00844371 -0.0261994,-0.0199927 -0.0368762,-0.0324099 -0.0211112,-0.0249596 -0.0379987,-0.0536424 -0.0608464,-0.0717696 -0.0152722,-0.0121708 -0.0329066,-0.0199927 -0.0571192,-0.0201179 -0.0182523,0 -0.0326563,0.0044702 -0.0451987,0.0117993 -0.0125385,0.00732518 -0.0232192,0.0176305 -0.0332782,0.0294259 -0.0201139,0.0235947 -0.0372517,0.0531457 -0.0628292,0.0736351 -0.0169031,0.0137 -0.0379674,0.023098 -0.0651523,0.0230941z"/>
   <path id="_116655232" class="fil3" d="M1.10836 4.83701c-0.0206106,0 -0.0377484,-0.00521328 -0.0521523,-0.013657 -0.0144001,-0.00844371 -0.0261994,-0.0199927 -0.036755,-0.0324099 -0.0211073,-0.0249596 -0.0379948,-0.0536424 -0.0609676,-0.0718948 -0.0152722,-0.0121708 -0.0327815,-0.0199927 -0.0571192,-0.0199927 -0.0182523,0 -0.0326563,0.0044702 -0.0451987,0.0117954 -0.0125424,0.00732518 -0.0232192,0.0176344 -0.0332782,0.0294298 -0.0201139,0.0235908 -0.0371265,0.0530206 -0.062708,0.0736351 -0.0171338,0.0137821 -0.0383663,0.0230941 -0.0658093,0.0230941 -0.0206145,0 -0.0377484,-0.00521328 -0.0521523,-0.013657 -0.014404,-0.00844371 -0.0261994,-0.0199927 -0.036755,-0.0324099 -0.0211112,-0.0249596 -0.0379948,-0.0536424 -0.0609676,-0.0718948 -0.0152722,-0.0121708 -0.0327815,-0.0199927 -0.0571192,-0.0199927 -0.0182563,0 -0.0326563,0.0044702 -0.0451987,0.0117954 -0.0125424,0.00732518 -0.0232231,0.0176344 -0.0331569,0.0294298 -0.0202391,0.0235908 -0.0372517,0.0530206 -0.0628292,0.0736351 -0.0170126,0.0137821 -0.0383702,0.0230941 -0.0658093,0.0230941 -0.0204894,0 -0.0376271,-0.00521328 -0.0520311,-0.013657 -0.0145252,-0.00844371 -0.0261994,-0.0199927 -0.0368762,-0.0324099 -0.0209861,-0.0249596 -0.0378735,-0.0536424 -0.0608464,-0.0718948 -0.0152722,-0.0121708 -0.0327815,-0.0199927 -0.0571192,-0.0199927 -0.0182523,0 -0.0326563,0.0044702 -0.0451987,0.0117954 -0.0104461,0.00616755 -0.0196603,0.014447 -0.0283113,0.0239388l0 -0.0196485c0.00252647,-0.00234656 0.00512333,-0.00460708 0.00782187,-0.00677374 0.0169031,-0.0137 0.0379674,-0.0230941 0.0651523,-0.0230941 0.000179903,-3.91094e-006 0.000359806,0 0.000535798,0 0.0206106,-3.91094e-006 0.0377484,0.00521328 0.0521523,0.013657 0.014404,0.00844371 0.0261994,0.0199927 0.036755,0.0324099 0.0211073,0.0249557 0.0379948,0.0536424 0.0608424,0.0717696 0.0154013,0.0121708 0.0329066,0.0199927 0.0571231,0.0201179 0.0182523,0 0.0326563,-0.0044702 0.0451948,-0.0117954 0.0125424,-0.0073291 0.0232231,-0.0176344 0.0332782,-0.0294298 0.0201179,-0.0235947 0.0371304,-0.0531457 0.0628331,-0.0736351 0.0169031,-0.0137 0.0379674,-0.0230941 0.0651523,-0.0230941 0.000175992,-3.91094e-006 0.000355895,0 0.000535798,0 0.0206106,-3.91094e-006 0.0377484,0.00521328 0.0521523,0.013657 0.014404,0.00844371 0.0261994,0.0199927 0.036755,0.0324099 0.0211073,0.0249557 0.0379948,0.0536424 0.0609676,0.0717696 0.0152722,0.0121708 0.0327815,0.0199927 0.0571192,0.0201179 0.0182523,0 0.0326563,-0.0044702 0.0451987,-0.0117954 0.0125424,-0.0073291 0.0232192,-0.0176344 0.0332782,-0.0294298 0.0201139,-0.0235947 0.0371265,-0.0531457 0.062708,-0.0736351 0.0170243,-0.0137 0.0380925,-0.0230941 0.0652774,-0.0230941 0.000175992,-3.91094e-006 0.000355895,0 0.000531887,0 0.0204894,-3.91094e-006 0.0377484,0.00521328 0.0521523,0.013657 0.014404,0.00844371 0.0262033,0.0199927 0.036755,0.0324099 0.0211112,0.0249557 0.0379987,0.0536424 0.0609676,0.0717696 0.0152761,0.0121708 0.0327815,0.0199927 0.0571192,0.0201179l0 0.0137821z"/>
   <path id="_116656432" class="fil2" d="M10.017 1.39234c-0.000175992,0 -0.000363717,0 -0.000539709,0 -0.0204894,0 -0.0376271,-0.00521328 -0.0520311,-0.013657 -0.0145252,-0.00844762 -0.0261994,-0.0199927 -0.0368762,-0.0324099 -0.0209861,-0.0249596 -0.0378735,-0.0536424 -0.0608464,-0.0717696 -0.0152644,-0.0121747 -0.0327815,-0.0199927 -0.0571192,-0.0201179l0 -0.0137861c0.0206185,0 0.0377484,0.00521719 0.0521523,0.0136609 0.014404,0.00844371 0.0261994,0.0199927 0.036755,0.0324099 0.0211112,0.0249557 0.0379987,0.0536424 0.0608464,0.0718948 0.0153974,0.0121669 0.0329027,0.0199927 0.0571192,0.0199927 0.0182602,-3.91094e-006 0.0326563,-0.0044702 0.0451987,-0.0117954 0.0125463,-0.0073291 0.0232192,-0.0176344 0.0332782,-0.0294298 0.0201218,-0.0235947 0.0371265,-0.0530206 0.0628292,-0.0736351 0.0170126,-0.0137861 0.0382451,-0.0230941 0.0656881,-0.0230941 0.0204894,-3.91094e-006 0.0377484,0.00521328 0.0521523,0.013657 0.014404,0.00844371 0.0261994,0.0199927 0.036755,0.0324099 0.0107473,0.0127027 0.0203916,0.0263793 0.030298,0.0391407l7.82187e-006 0.0219091c-0.00041847,-0.000484956 -0.000836941,-0.00096209 -0.0012515,-0.00144705 -0.0210995,-0.0249596 -0.0379948,-0.0536424 -0.0608424,-0.0717696 -0.0152683,-0.0121747 -0.0327815,-0.0199927 -0.0571192,-0.0201179 -0.0182523,-3.91094e-006 -0.0326563,0.0044702 -0.0451987,0.0117954 -0.0125424,0.00732518 -0.0232192,0.0176344 -0.033153,0.0294298 -0.0202352,0.0235908 -0.0372517,0.0531457 -0.0628331,0.0736351 -0.0168952,0.0137 -0.0380925,0.0230941 -0.0652696,0.0230941z"/>
   <path id="_116657104" class="fil4" d="M8.36784 3.54698c-0.0189915,0 -0.0345218,-0.0153974 -0.0345218,-0.0345179 7.82187e-006,-0.0189993 0.0153974,-0.0343967 0.0345218,-0.0343967 0.0189993,0 0.0345179,0.0153974 0.0345179,0.0343967l0 0c0,0.0191206 -0.0155186,0.0345179 -0.0345179,0.0345179m0 -0.0551325c-0.0114238,0 -0.0207358,0.0091907 -0.0207358,0.0206145 0,0.0114238 0.00931194,0.0207358 0.0207358,0.0207358 0.0114238,0 0.0206106,-0.00931194 0.0207358,-0.0207358 -0.00012515,-0.0114238 -0.00931194,-0.0206145 -0.0207358,-0.0206145m0.0345179 0.0206145l0 0z"/>
   <path id="_79276448" class="fil5" d="M8.36784 3.66197c-0.0189915,0 -0.0345218,-0.0153974 -0.0345218,-0.0345218 7.82187e-006,-0.0189993 0.0153974,-0.0345179 0.0345218,-0.0345179 0.0189993,0 0.0345179,0.0155225 0.0345179,0.0345179l0 0c0,0.0191245 -0.0155186,0.0345218 -0.0345179,0.0345218m0 -0.0552576c-0.0114238,0.00012515 -0.0207358,0.00931194 -0.0207358,0.0207358 0,0.0114238 0.00931194,0.0207397 0.0207358,0.0207397 0.0114238,-3.91094e-006 0.0206106,-0.00931585 0.0207358,-0.0207397 -0.00012515,-0.0114238 -0.00931194,-0.0206106 -0.0207358,-0.0207358m0.0345179 0.0207358l0 0z"/>
   <path id="_79276664" class="fil5" d="M8.36784 3.77695c-0.0189915,0 -0.0345218,-0.0153974 -0.0345218,-0.0345179 7.82187e-006,-0.0189993 0.0153974,-0.0345218 0.0345218,-0.0345218 0.0189993,0 0.0345179,0.0155225 0.0345179,0.0345218l0 0c0,0.0191206 -0.0155186,0.0345179 -0.0345179,0.0345179m0 -0.0552576c-0.0114238,0.00012515 -0.0207358,0.00931585 -0.0207358,0.0207397 0,0.0114238 0.00931194,0.0207358 0.0207358,0.0207358 0.0114238,0 0.0206106,-0.00931194 0.0207358,-0.0207358 -0.00012515,-0.0114238 -0.00931194,-0.0206145 -0.0207358,-0.0207358m0.0345179 0.0207358l0 0z"/>
   <path id="_79275848" class="fil5" d="M8.47128 3.6642c-0.0189993,0 -0.0343967,-0.0153974 -0.0345218,-0.0343928 0.00012515,-0.0191245 0.0155225,-0.0345218 0.0345218,-0.0345218 0.0191206,0 0.0345179,0.0153974 0.0345179,0.0345218l0 -3.91094e-006c0,0.0189993 -0.0153974,0.0343967 -0.0345179,0.0343967m0 -0.0551325c-0.0114238,0 -0.0206145,0.00931585 -0.0206145,0.0207397 7.82187e-006,0.0114199 0.0091907,0.0206106 0.0206145,0.0206106 0.0114238,0 0.0207358,-0.00918679 0.0207358,-0.0206106 0,-0.0114278 -0.00931194,-0.0207397 -0.0207358,-0.0207397m0.0345179 0.0207358l0 0z"/>
   <path id="_79276256" class="fil5" d="M8.47128 3.77919c-0.0189993,0 -0.0343967,-0.0153974 -0.0345218,-0.0343967 0.00012515,-0.0191245 0.0155225,-0.0345179 0.0345218,-0.0345179 0.0191206,-3.91094e-006 0.0345179,0.0153974 0.0345179,0.0345179l0 0c0,0.0189993 -0.0153974,0.0343967 -0.0345179,0.0343967m0 -0.0551325c-0.0114238,0 -0.0206145,0.00931194 -0.0206145,0.0207358 7.82187e-006,0.0114238 0.0091907,0.0206145 0.0206145,0.0206145 0.0114238,-3.91094e-006 0.0207358,-0.0091907 0.0207358,-0.0206145 0,-0.0114238 -0.00931194,-0.0207358 -0.0207358,-0.0207358m0.0345179 0.0207358l0 0z"/>
   <path id="_79275800" class="fil5" d="M8.47128 3.89417c-0.0189993,0 -0.0343967,-0.0153974 -0.0345218,-0.0343928 0.00012515,-0.0191245 0.0155225,-0.0345218 0.0345218,-0.0345218 0.0191206,0 0.0345179,0.0153974 0.0345179,0.0345218l0 -3.91094e-006c0,0.0189993 -0.0153974,0.0343967 -0.0345179,0.0343967m0 -0.0551325c-0.0114238,0 -0.0206145,0.00931585 -0.0206145,0.0207397 7.82187e-006,0.0114199 0.0091907,0.0206106 0.0206145,0.0206106 0.0114238,0 0.0207358,-0.00918679 0.0207358,-0.0206106 0,-0.0114278 -0.00931194,-0.0207397 -0.0207358,-0.0207397m0.0345179 0.0207358l0 0z"/>
   <path id="_79276640" class="fil5" d="M8.36784 3.89417c-0.0189915,0 -0.0345218,-0.0153974 -0.0345218,-0.0343928 7.82187e-006,-0.0191245 0.0153974,-0.0345218 0.0345218,-0.0345218 0.0189993,0 0.0345179,0.0153974 0.0345179,0.0345218l0 -3.91094e-006c0,0.0189993 -0.0155186,0.0343967 -0.0345179,0.0343967m0 -0.0551325c-0.0114238,0 -0.0207358,0.00931585 -0.0207358,0.0207397 0,0.0114199 0.00931194,0.0206106 0.0207358,0.0206106 0.0114238,0 0.0206106,-0.00918679 0.0207358,-0.0206106 -0.00012515,-0.0114278 -0.00931194,-0.0207397 -0.0207358,-0.0207397m0.0345179 0.0207358l0 0z"/>
   <path id="_79276376" class="fil5" d="M8.36784 4.00915c-0.0189915,0 -0.0345218,-0.0153974 -0.0345218,-0.0343967 7.82187e-006,-0.0191245 0.0153974,-0.0345179 0.0345218,-0.0345179 0.0189993,-3.91094e-006 0.0345179,0.0153974 0.0345179,0.0345179l0 0c0,0.0189993 -0.0155186,0.0343967 -0.0345179,0.0343967m0 -0.0551325c-0.0114238,0 -0.0207358,0.00931194 -0.0207358,0.0207358 0,0.0114238 0.00931194,0.0206145 0.0207358,0.0206145 0.0114238,-3.91094e-006 0.0206106,-0.00931585 0.0207358,-0.0206145 -0.00012515,-0.0114238 -0.00931194,-0.0207358 -0.0207358,-0.0207358m0.0345179 0.0207358l0 0z"/>
   <path id="_115877808" class="fil5" d="M8.36784 4.12413c-0.0189915,0 -0.0345218,-0.0153974 -0.0345218,-0.0345179 7.82187e-006,-0.0189993 0.0153974,-0.0343967 0.0345218,-0.0343967 0.0189993,0 0.0345179,0.0153974 0.0345179,0.0343967l0 0c0,0.0191206 -0.0155186,0.0345179 -0.0345179,0.0345179m0 -0.0551325c-0.0114238,0 -0.0207358,0.0091907 -0.0207358,0.0206145 0,0.0114238 0.00931194,0.0207358 0.0207358,0.0207358 0.0114238,0 0.0206106,-0.00931194 0.0207358,-0.0207358 -0.00012515,-0.0113026 -0.00931194,-0.0206145 -0.0207358,-0.0206145m0.0345179 0.0206145l0 0z"/>
   <path id="_115876272" class="fil5" d="M8.47128 4.01151c-0.0189993,0 -0.0343967,-0.0155225 -0.0345218,-0.0345179 0.00012515,-0.0189993 0.0155225,-0.0345218 0.0345218,-0.0345218 0.0191206,0 0.0345179,0.0155225 0.0345179,0.0345218l0 -3.91094e-006c0,0.0191245 -0.0153974,0.0345218 -0.0345179,0.0345218m0 -0.0552576c-0.0114238,0.00012515 -0.0206145,0.00931585 -0.0206145,0.0207397 7.82187e-006,0.0114199 0.0091907,0.0207358 0.0206145,0.0207358 0.0114238,0 0.0207358,-0.00931194 0.0207358,-0.0207358 0,-0.0114278 -0.00931194,-0.0206145 -0.0207358,-0.0207397m0.0345179 0.0207358l0 0z"/>
   <path id="_115877376" class="fil5" d="M8.47128 4.12649c-0.0189993,0 -0.0343967,-0.0155186 -0.0345218,-0.0345179 0.00012515,-0.0189993 0.0155225,-0.0345179 0.0345218,-0.0345179 0.0191206,-3.91094e-006 0.0345179,0.0155186 0.0345179,0.0345179l0 0c0,0.0189993 -0.0153974,0.0345218 -0.0345179,0.0345218m0 -0.0552576c-0.0114238,0 -0.0206145,0.00931194 -0.0206145,0.0207358 7.82187e-006,0.0114238 0.0091907,0.0206145 0.0206145,0.0207358 0.0114238,-0.00012515 0.0207358,-0.00931194 0.0207358,-0.0207358 0,-0.0114238 -0.00931194,-0.0207358 -0.0207358,-0.0207358m0.0345179 0.0207358l0 0z"/>
   <path id="_115876224" class="fil5" d="M8.47128 4.24148c-0.0189993,0 -0.0343967,-0.0155225 -0.0345218,-0.0345179 0.00012515,-0.0189993 0.0155225,-0.0345218 0.0345218,-0.0345218 0.0191206,0 0.0345179,0.0153974 0.0345179,0.0345218l0 -3.91094e-006c0,0.0189993 -0.0153974,0.0345218 -0.0345179,0.0345218m0 -0.0552576c-0.0114238,0 -0.0206145,0.00931585 -0.0206145,0.0207397 7.82187e-006,0.0114199 0.0091907,0.0206106 0.0206145,0.0207358 0.0114238,-0.00012515 0.0207358,-0.00931194 0.0207358,-0.0207358 0,-0.0114278 -0.00931194,-0.0207397 -0.0207358,-0.0207397m0.0345179 0.0207358l0 0z"/>
   <path id="_115876176" class="fil0" d="M0.873801 0.645074c-0.0189993,0 -0.0345218,-0.0155186 -0.0345218,-0.0345179 0,-0.0189993 0.0155225,-0.0345179 0.0345218,-0.0345179 0.0189954,-3.91094e-006 0.0345179,0.0155225 0.0345179,0.0345179l0 0c0,0.0189954 -0.0155225,0.0345218 -0.0345179,0.0345218m0 -0.0552615c-0.0114238,0 -0.0206145,0.00931585 -0.0207358,0.0207397 0.000121239,0.0114238 0.00931194,0.0206145 0.0207358,0.0207397 0.0114238,-0.000129061 0.0207358,-0.00931585 0.0207358,-0.0207397 0,-0.0114238 -0.00931194,-0.0207358 -0.0207358,-0.0207358m0.0345179 0.0207358l0 0z"/>
   <path id="_115876704" class="fil0" d="M0.873801 0.760059c-0.0189993,0 -0.0345218,-0.0155186 -0.0345218,-0.0345179 0,-0.0191245 0.0155225,-0.0345218 0.0345218,-0.0345218 0.0189954,0 0.0345179,0.0153974 0.0345179,0.0345218l0 -3.91094e-006c0,0.0189993 -0.0155225,0.0345218 -0.0345179,0.0345218m0 -0.0552576c-0.0114238,0 -0.0206145,0.00931585 -0.0207358,0.0207397 0.000121239,0.0114199 0.00931194,0.0206106 0.0207358,0.0207358 0.0114238,-0.00012515 0.0207358,-0.00931194 0.0207358,-0.0207358 0,-0.0114278 -0.00931194,-0.0207358 -0.0207358,-0.0207358m0.0345179 0.0207319l0 0z"/>
   <path id="_115877208" class="fil0" d="M0.873801 0.875041c-0.0189993,0 -0.0345218,-0.0155186 -0.0345218,-0.0345179 0,-0.0191245 0.0155225,-0.0345179 0.0345218,-0.0345179 0.0189954,-3.91094e-006 0.0345179,0.0153974 0.0345179,0.0345179l0 0c0,0.0189954 -0.0155225,0.0345218 -0.0345179,0.0345218m0 -0.0552615c-0.0114238,0 -0.0206145,0.00931585 -0.0207358,0.0207397 0.000121239,0.0114238 0.00931194,0.0206145 0.0207358,0.0206145 0.0114238,-3.91094e-006 0.0207358,-0.0091907 0.0207358,-0.0206145 0,-0.0114238 -0.00931194,-0.0207358 -0.0207358,-0.0207358m0.0345179 0.0207358l0 0z"/>
   <path id="_115876944" class="fil0" d="M0.977238 0.762292c-0.0189993,0 -0.0343967,-0.0153934 -0.0343967,-0.0345179 0,-0.0189993 0.0153974,-0.0343928 0.0343967,-0.0343928 0.0191206,-3.91094e-006 0.0345179,0.0153974 0.0345179,0.0343928l0 0c0,0.0191206 -0.0153974,0.0345218 -0.0345179,0.0345218m0 -0.0551364c-0.0114278,0 -0.0206145,0.0091907 -0.0206145,0.0206145 0,0.0114238 0.00918679,0.0207397 0.0206145,0.0207397 0.0114199,-3.91094e-006 0.0207358,-0.00931585 0.0207358,-0.0207397 0,-0.0114238 -0.00931585,-0.0206106 -0.0207358,-0.0206106m0.0345179 0.0206106l0 0z"/>
   <path id="_115877496" class="fil0" d="M0.977238 0.877278c-0.0189993,0 -0.0343967,-0.0153974 -0.0343967,-0.0345179 0,-0.0190032 0.0153974,-0.0343967 0.0343967,-0.0343967 0.0191206,-3.91094e-006 0.0345179,0.0153974 0.0345179,0.0343967l0 -3.91094e-006c0,0.0191245 -0.0153974,0.0345218 -0.0345179,0.0345218m0 -0.0551325c-0.0114278,0 -0.0206145,0.0091907 -0.0206145,0.0206145 0,0.0114199 0.00918679,0.0207358 0.0206145,0.0207358 0.0114199,-3.91094e-006 0.0207358,-0.00931194 0.0207358,-0.0207358 0,-0.0114278 -0.00931585,-0.0206145 -0.0207358,-0.0206145m0.0345179 0.0206106l0 0z"/>
   <path id="_77945704" class="fil0" d="M0.977238 0.992259c-0.0189993,0 -0.0343967,-0.0153934 -0.0343967,-0.0345179 0,-0.0189993 0.0153974,-0.0343928 0.0343967,-0.0345179 0.0191206,0.000121239 0.0345179,0.0155225 0.0345179,0.0345179l0 0c0,0.0191206 -0.0153974,0.0345218 -0.0345179,0.0345218m0 -0.0551364c-0.0114278,0 -0.0206145,0.0091907 -0.0206145,0.0206145 0,0.0114238 0.00918679,0.0207397 0.0206145,0.0207397 0.0114199,-3.91094e-006 0.0207358,-0.00931585 0.0207358,-0.0207397 0,-0.0114238 -0.00931585,-0.0206106 -0.0207358,-0.0206106m0.0345179 0.0206106l0 0z"/>
   <path id="_77946160" class="fil0" d="M0.873801 0.992259c-0.0189993,0 -0.0345218,-0.0153934 -0.0345218,-0.0345179 0,-0.0189993 0.0155225,-0.0343928 0.0345218,-0.0345179 0.0189954,0.000121239 0.0345179,0.0155225 0.0345179,0.0345179l0 0c0,0.0191206 -0.0155225,0.0345218 -0.0345179,0.0345218m0 -0.0551364c-0.0114238,0 -0.0206145,0.0091907 -0.0207358,0.0206145 0.000121239,0.0114238 0.00931194,0.0207397 0.0207358,0.0207397 0.0114238,-3.91094e-006 0.0207358,-0.00931585 0.0207358,-0.0207397 0,-0.0114238 -0.00931194,-0.0206106 -0.0207358,-0.0206106m0.0345179 0.0206106l0 0z"/>
   <path id="_77946304" class="fil0" d="M0.873801 1.10724c-0.0189993,0 -0.0345218,-0.0153974 -0.0345218,-0.0345179 0,-0.0190032 0.0155225,-0.0345218 0.0345218,-0.0345218 0.0189954,0 0.0345179,0.0155225 0.0345179,0.0345218l0 -3.91094e-006c0,0.0191245 -0.0155225,0.0345218 -0.0345179,0.0345218m0 -0.0552576c-0.0114238,0.00012515 -0.0206145,0.00931585 -0.0207358,0.0207397 0.000121239,0.0114199 0.00931194,0.0207358 0.0207358,0.0207358 0.0114238,-3.91094e-006 0.0207358,-0.00931194 0.0207358,-0.0207358 0,-0.0114278 -0.00931194,-0.0206145 -0.0207358,-0.0207358m0.0345179 0.0207319l0 0z"/>
   <path id="_77945776" class="fil0" d="M0.873801 1.22223c-0.0189993,0 -0.0345218,-0.0153934 -0.0345218,-0.0345179 0,-0.0189993 0.0155225,-0.0345179 0.0345218,-0.0345179 0.0189954,-3.91094e-006 0.0345179,0.0155225 0.0345179,0.0345179l0 0c0,0.0191206 -0.0155225,0.0345218 -0.0345179,0.0345218m0 -0.0552615c-0.0114238,0.00012515 -0.0206145,0.00931585 -0.0207358,0.0207397 0.000121239,0.0114238 0.00931194,0.0207397 0.0207358,0.0207397 0.0114238,-3.91094e-006 0.0207358,-0.00931585 0.0207358,-0.0207397 0,-0.0114238 -0.00931194,-0.0206106 -0.0207358,-0.0207358m0.0345179 0.0207358l0 0z"/>
   <path id="_77946424" class="fil0" d="M0.977238 1.10948c-0.0189993,0 -0.0343967,-0.0153934 -0.0343967,-0.0343928 0,-0.0191245 0.0153974,-0.0345179 0.0343967,-0.0345179 0.0191206,-3.91094e-006 0.0345179,0.0153974 0.0345179,0.0345179l0 -3.91094e-006c0,0.0189993 -0.0153974,0.0344006 -0.0345179,0.0344006m0 -0.0551364c-0.0114278,0 -0.0206145,0.00931585 -0.0206145,0.0207397 0,0.0114199 0.00918679,0.0206145 0.0206145,0.0206145 0.0114199,-3.91094e-006 0.0207358,-0.0091907 0.0207358,-0.0206145 0,-0.0114278 -0.00931585,-0.0207358 -0.0207358,-0.0207358m0.0345179 0.0207319l0 0z"/>
   <path id="_77945968" class="fil0" d="M0.977238 1.22446c-0.0189993,0 -0.0343967,-0.0153974 -0.0343967,-0.0343928 0,-0.0191284 0.0153974,-0.0345218 0.0343967,-0.0345218 0.0191206,-3.91094e-006 0.0345179,0.0153974 0.0345179,0.0345218l0 -3.91094e-006c0,0.0189993 -0.0153974,0.0343967 -0.0345179,0.0343967m0 -0.0551325c-0.0114278,0 -0.0206145,0.00931585 -0.0206145,0.0207397 0,0.0114199 0.00918679,0.0206106 0.0206145,0.0206106 0.0114199,-3.91094e-006 0.0207358,-0.00918679 0.0207358,-0.0206106 0,-0.0114278 -0.00931585,-0.0207397 -0.0207358,-0.0207397m0.0345179 0.0207358l0 0z"/>
   <path id="_77945584" class="fil0" d="M0.977238 1.33945c-0.0189993,0 -0.0343967,-0.0153934 -0.0343967,-0.0343928 0,-0.0191245 0.0153974,-0.0345179 0.0343967,-0.0345179 0.0191206,-3.91094e-006 0.0345179,0.0153974 0.0345179,0.0345179l0 -3.91094e-006c0,0.0189993 -0.0153974,0.0344006 -0.0345179,0.0344006m0 -0.0551364c-0.0114278,0 -0.0206145,0.00931585 -0.0206145,0.0207397 0,0.0112987 0.00918679,0.0206145 0.0206145,0.0206145 0.0114199,-3.91094e-006 0.0207358,-0.00931585 0.0207358,-0.0206145 0,-0.0114278 -0.00931585,-0.0207358 -0.0207358,-0.0207358m0.0345179 0.0207319l0 0z"/>
   <path id="_77945728" class="fil2" d="M2.58229 5.22095c-0.0189993,0 -0.0343967,-0.0153974 -0.0345218,-0.0343967 0.000129061,-0.0191206 0.0155225,-0.0345179 0.0345218,-0.0345179 0.0191245,0 0.0345179,0.0153974 0.0345179,0.0345179 0,0.0189993 -0.0153934,0.0343967 -0.0345179,0.0343967l0 -0.0068285 0 -0.00695365c0.0114238,0 0.0207358,-0.0091907 0.0207358,-0.0206145 3.91094e-006,-0.0114238 -0.00931194,-0.0207358 -0.0207358,-0.0207358 -0.0114238,0 -0.0206145,0.00931194 -0.0206145,0.0207358 0,0.0114238 0.0091907,0.0206145 0.0206145,0.0206145l0 0.00695365 0 0.0068285z"/>
   <path id="_77946400" class="fil2" d="M2.4673 5.22095c-0.0189954,0 -0.0343928,-0.0153974 -0.0343928,-0.0343967 0,-0.0191206 0.0153974,-0.0345179 0.0343928,-0.0345179 0.0191245,0 0.0345218,0.0153974 0.0345218,0.0345179 0,0.0189993 -0.0153974,0.0343967 -0.0345218,0.0343967l0 -0.0068285 0 -0.00695365c0.0114278,0 0.0207397,-0.0091907 0.0207397,-0.0206145 0,-0.0114238 -0.00931194,-0.0207358 -0.0207397,-0.0207358 -0.0114238,0 -0.0206106,0.00931194 -0.0206106,0.0207358 0,0.0114238 0.00918679,0.0206145 0.0206106,0.0206145l0 0.00695365 0 0.0068285z"/>
   <path id="_77946088" class="fil2" d="M2.35232 5.22095c-0.0189993,0 -0.0343967,-0.0153974 -0.0343967,-0.0343967 3.91094e-006,-0.0191206 0.0153974,-0.0345179 0.0343967,-0.0345179 0.0191245,0 0.0345179,0.0153974 0.0345179,0.0345179 0,0.0189993 -0.0153934,0.0343967 -0.0345179,0.0343967l0 -0.0068285 0 -0.00695365c0.0114238,0 0.0207358,-0.0091907 0.0207358,-0.0206145 0,-0.0114238 -0.00931194,-0.0207358 -0.0207358,-0.0207358 -0.0112987,0 -0.0206145,0.00931194 -0.0206145,0.0207358 0,0.0114238 0.0091907,0.0206145 0.0206145,0.0206145l0 0.00695365 0 0.0068285z"/>
   <path id="_77946016" class="fil2" d="M2.46507 5.32451c-0.0191245,0 -0.0345218,-0.0153974 -0.0345218,-0.0345218 0,-0.0189993 0.0153974,-0.0345179 0.0345218,-0.0345179 0.0189993,0 0.0345179,0.0155186 0.0345179,0.0345179 0,0.0191245 -0.0155186,0.0345218 -0.0345179,0.0345218l0 -0.00695365 0 -0.00683241c0.0114238,0 0.0206106,-0.00931194 0.0206106,-0.0207358 0,-0.0114238 -0.00918679,-0.0206106 -0.0206106,-0.0207358 -0.0114238,0.00012515 -0.0207358,0.00931194 -0.0207358,0.0207358 0,0.0114238 0.00931194,0.0207358 0.0207358,0.0207358l0 0.00683241 0 0.00695365z"/>
   <path id="_77946472" class="fil2" d="M2.35008 5.32451c-0.0189954,0 -0.0345179,-0.0153974 -0.0345179,-0.0345218 0,-0.0189993 0.0155225,-0.0345179 0.0345179,-0.0345179 0.0189993,0 0.0345218,0.0155186 0.0345218,0.0345179 0,0.0191245 -0.0155225,0.0345218 -0.0345218,0.0345218l0 -0.00695365 0 -0.00683241c0.0114238,0 0.0206145,-0.00931194 0.0207397,-0.0207358 -0.00012515,-0.0114238 -0.00931585,-0.0206106 -0.0207397,-0.0207358 -0.0114238,0.00012515 -0.0207358,0.00931194 -0.0207358,0.0207358 0,0.0114238 0.00931194,0.0207358 0.0207358,0.0207358l0 0.00683241 0 0.00695365z"/>
   <path id="_77945608" class="fil2" d="M2.2351 5.32451c-0.0189993,0 -0.0345218,-0.0153974 -0.0345218,-0.0345218 0,-0.0189993 0.0155225,-0.0345179 0.0345218,-0.0345179 0.0189993,0 0.0345179,0.0155186 0.0345179,0.0345179 0,0.0191245 -0.0155186,0.0345218 -0.0345179,0.0345218l0 -0.00695365 0 -0.00683241c0.0114238,0 0.0206106,-0.00931194 0.0207358,-0.0207358 -0.00012515,-0.0114238 -0.00931194,-0.0206106 -0.0207358,-0.0207358 -0.0114238,0.00012515 -0.0207358,0.00931194 -0.0207358,0.0207358 0,0.0114238 0.00931194,0.0207358 0.0207358,0.0207358l0 0.00683241 0 0.00695365z"/>
   <path id="_78753680" class="fil2" d="M2.2351 5.22095c-0.0189993,0 -0.0345218,-0.0153974 -0.0345218,-0.0343967 0,-0.0191206 0.0155225,-0.0345179 0.0345218,-0.0345179 0.0189993,0 0.0345179,0.0153974 0.0345179,0.0345179 0,0.0189993 -0.0155186,0.0343967 -0.0345179,0.0343967l0 -0.0068285 0 -0.00695365c0.0114238,0 0.0206106,-0.0091907 0.0207358,-0.0206145 -0.00012515,-0.0114238 -0.00931194,-0.0207358 -0.0207358,-0.0207358 -0.0114238,0 -0.0207358,0.00931194 -0.0207358,0.0207358 0,0.0114238 0.00931194,0.0206145 0.0207358,0.0206145l0 0.00695365 0 0.0068285z"/>
   <path id="_78754160" class="fil2" d="M2.12012 5.22095c-0.0189954,0 -0.0345179,-0.0153974 -0.0345179,-0.0343967 0,-0.0191206 0.0155225,-0.0345179 0.0345179,-0.0345179 0.0189993,0 0.0345218,0.0153974 0.0345218,0.0345179 0,0.0189993 -0.0155225,0.0343967 -0.0345218,0.0343967l0 -0.0068285 0 -0.00695365c0.0114238,0 0.0207397,-0.0091907 0.0207397,-0.0206145 0,-0.0114238 -0.00931585,-0.0207358 -0.0207397,-0.0207358 -0.0114238,0 -0.0206106,0.00931194 -0.0207358,0.0207358 0.00012515,0.0114238 0.00931194,0.0206145 0.0207358,0.0206145l0 0.00695365 0 0.0068285z"/>
   <path id="_78753464" class="fil2" d="M2.00513 5.22095c-0.0189993,0 -0.0345179,-0.0153974 -0.0345179,-0.0343967 0,-0.0191206 0.0155186,-0.0345179 0.0345179,-0.0345179 0.0191245,0 0.0345179,0.0153974 0.0345179,0.0345179 0,0.0189993 -0.0153934,0.0343967 -0.0345179,0.0343967l0 -0.0068285 0 -0.00695365c0.0114238,0 0.0207358,-0.0091907 0.0207358,-0.0206145 0,-0.0114238 -0.00931194,-0.0207358 -0.0207358,-0.0207358 -0.0114238,0 -0.0206145,0.00931194 -0.0207358,0.0207358 0.000121239,0.0114238 0.00931194,0.0206145 0.0207358,0.0206145l0 0.00695365 0 0.0068285z"/>
   <path id="_78754064" class="fil2" d="M2.11788 5.32451c-0.0191245,0 -0.0345218,-0.0153974 -0.0345218,-0.0345218 0,-0.0189993 0.0153974,-0.0345179 0.0345218,-0.0345179 0.0189993,0 0.0343967,0.0155186 0.0343967,0.0345179 0,0.0191245 -0.0153974,0.0345218 -0.0343967,0.0345218l0 -0.00695365 0 -0.00683241c0.0114238,0 0.0206106,-0.00931194 0.0206106,-0.0207358 0,-0.0114238 -0.00931194,-0.0206106 -0.0206106,-0.0207358 -0.0114238,0.00012515 -0.0207358,0.00931194 -0.0207358,0.0207358 0,0.0114238 0.00931194,0.0207358 0.0207358,0.0207358l0 0.00683241 0 0.00695365z"/>
   <path id="_78753440" class="fil2" d="M2.0029 5.32451c-0.0191206,0 -0.0345179,-0.0153974 -0.0345179,-0.0345218 0,-0.0189993 0.0153974,-0.0345179 0.0345179,-0.0345179 0.0189993,0 0.0343967,0.0155186 0.0343967,0.0345179 0,0.0191245 -0.0153974,0.0345218 -0.0343967,0.0345218l0 -0.00695365 0 -0.00683241c0.0114278,0 0.0206145,-0.00931194 0.0206145,-0.0207358 0,-0.0114238 -0.00918679,-0.0206106 -0.0206145,-0.0207358 -0.0114238,0.00012515 -0.0207358,0.00931194 -0.0207358,0.0207358 0,0.0114238 0.00931194,0.0207358 0.0207358,0.0207358l0 0.00683241 0 0.00695365z"/>
   <path id="_78753896" class="fil2" d="M1.88791 5.32451c-0.0191245,0 -0.0345218,-0.0153974 -0.0345218,-0.0345218 0,-0.0189993 0.0153974,-0.0345179 0.0345218,-0.0345179 0.0189993,0 0.0343967,0.0155186 0.0343967,0.0345179 0,0.0191245 -0.0153974,0.0345218 -0.0343967,0.0345218l0 -0.00695365 0 -0.00683241c0.0114238,0 0.0206145,-0.00931194 0.0206145,-0.0207358 0,-0.0114238 -0.0091907,-0.0206106 -0.0206145,-0.0207358 -0.0114238,0.00012515 -0.0207358,0.00931194 -0.0207358,0.0207358 0,0.0114238 0.00931194,0.0207358 0.0207358,0.0207358l0 0.00683241 0 0.00695365z"/>
   <path id="_78754232" class="fil2" d="M6.21557 0.622101c-0.0191206,0 -0.0345179,-0.0155186 -0.0345179,-0.034514 0,-0.0191284 0.0153974,-0.0345218 0.0345179,-0.0345218 0.0190032,-3.91094e-006 0.0343967,0.0153974 0.0343967,0.0345218 3.91094e-006,0.0189954 -0.0153974,0.0343928 -0.0343967,0.0345179l0 -0.00695756 0 -0.00695365c0.0112987,0 0.0206145,-0.00918288 0.0206145,-0.0206067 0,-0.0114278 -0.00931585,-0.0207397 -0.0206145,-0.0207397 -0.0114238,0 -0.0207358,0.00931585 -0.0207358,0.0207397 3.91094e-006,0.0114199 0.00931194,0.0206106 0.0207358,0.0206106l0 0.00694974 0 0.00695365z"/>
   <path id="_78754088" class="fil2" d="M6.10058 0.622101c-0.0191245,0 -0.0345218,-0.0155186 -0.0345218,-0.034514 0,-0.0191284 0.0153974,-0.0345218 0.0345218,-0.0345218 0.0189954,-3.91094e-006 0.0343928,0.0153974 0.0343928,0.0345218 0,0.0189954 -0.0153974,0.0343928 -0.0343928,0.0345179l0 -0.00695756 0 -0.00695365c0.0114238,0 0.0206106,-0.00918288 0.0206106,-0.0206067 0,-0.0114278 -0.00918679,-0.0207397 -0.0206106,-0.0207397 -0.0114238,0 -0.0207397,0.00931585 -0.0207397,0.0207397 0,0.0114199 0.00931585,0.0206106 0.0207397,0.0206106l0 0.00694974 0 0.00695365z"/>
   <path id="_78753656" class="fil2" d="M5.9856 0.622101c-0.0191206,0 -0.0345179,-0.0155186 -0.0345179,-0.034514 0,-0.0191284 0.0153974,-0.0345218 0.0345179,-0.0345218 0.0190032,-3.91094e-006 0.0343967,0.0153974 0.0343967,0.0345218 3.91094e-006,0.0189954 -0.0153974,0.0343928 -0.0343967,0.0345179l0 -0.00695756 0 -0.00695365c0.0114238,0 0.0206145,-0.00918288 0.0206145,-0.0206067 0,-0.0114278 -0.0091907,-0.0207397 -0.0206145,-0.0207397 -0.0114238,0 -0.0207358,0.00931585 -0.0207358,0.0207397 3.91094e-006,0.0114199 0.00931194,0.0206106 0.0207358,0.0206106l0 0.00694974 0 0.00695365z"/>
   <path id="_78753752" class="fil2" d="M6.09822 0.725537c-0.0189954,0 -0.0345179,-0.0155186 -0.0345179,-0.0345179 3.91094e-006,-0.0189993 0.0155225,-0.0345179 0.0345179,-0.0345179 0.0191284,-3.91094e-006 0.0345218,0.0155225 0.0345218,0.0345179 3.91094e-006,0.0191206 -0.0153974,0.0345218 -0.0345218,0.0345218l0 -0.00695756 0 -0.0068285c0.0114238,0 0.0207397,-0.00931194 0.0207397,-0.0207358 0,-0.0114238 -0.00931585,-0.0206106 -0.0207397,-0.0207358 -0.0114238,0.000121239 -0.0206106,0.00931194 -0.0207358,0.0207358 0.000129061,0.0114238 0.00931194,0.0207397 0.0207358,0.0207397l0 0.00682459 0 0.00695365z"/>
   <path id="_78754040" class="fil2" d="M5.98324 0.725537c-0.0190032,0 -0.0344006,-0.0155186 -0.0345258,-0.0345179 0.00012515,-0.0189993 0.0155225,-0.0345179 0.0345218,-0.0345179 0.0191206,-3.91094e-006 0.0345179,0.0155225 0.0345179,0.0345179 0,0.0191206 -0.0153974,0.0345218 -0.0345179,0.0345218l3.91094e-006 -0.00695756 0 -0.0068285c0.0114238,0 0.0207319,-0.00931194 0.0207319,-0.0207358 0,-0.0114238 -0.00931194,-0.0206106 -0.0207358,-0.0207358 -0.0114199,0.000121239 -0.0206145,0.00931194 -0.0206145,0.0207358 0,0.0114238 0.0091907,0.0207397 0.0206145,0.0207397l3.91094e-006 0.00682459 0 0.00695365z"/>
   <path id="_78753776" class="fil2" d="M5.86826 0.725537c-0.0189954,0 -0.0343928,-0.0155186 -0.0345179,-0.0345179 0.00012515,-0.0189993 0.0155225,-0.0345179 0.0345179,-0.0345179 0.0191284,-3.91094e-006 0.0345218,0.0155225 0.0345218,0.0345179 3.91094e-006,0.0191206 -0.0153974,0.0345218 -0.0345218,0.0345218l0 -0.00695756 0 -0.0068285c0.0114238,0 0.0207397,-0.00931194 0.0207397,-0.0207358 0,-0.0114238 -0.00931585,-0.0206106 -0.0207397,-0.0207358 -0.0114238,0.000121239 -0.0206106,0.00931194 -0.0206106,0.0207358 3.91094e-006,0.0114238 0.00918679,0.0207397 0.0206106,0.0207397l0 0.00682459 0 0.00695365z"/>
   <path id="_78753824" class="fil2" d="M5.86826 0.622101c-0.0189954,0 -0.0343928,-0.0155186 -0.0345179,-0.034514 0.00012515,-0.0191284 0.0155225,-0.0345218 0.0345179,-0.0345218 0.0191284,-3.91094e-006 0.0345218,0.0153974 0.0345218,0.0345218 3.91094e-006,0.0189954 -0.0153974,0.0343928 -0.0345218,0.0345179l0 -0.00695756 0 -0.00695365c0.0114238,0 0.0207397,-0.00918288 0.0207397,-0.0206067 0,-0.0114278 -0.00931585,-0.0207397 -0.0207397,-0.0207397 -0.0114238,0 -0.0206106,0.00931585 -0.0206106,0.0207397 3.91094e-006,0.0114199 0.00918679,0.0206106 0.0206106,0.0206106l0 0.00694974 0 0.00695365z"/>
   <path id="_115883608" class="fil2" d="M5.75328 0.622101c-0.0190032,0 -0.0344006,-0.0155186 -0.0344006,-0.034514 0,-0.0191284 0.0153974,-0.0345218 0.0343967,-0.0345218 0.0191206,-3.91094e-006 0.0345179,0.0153974 0.0345179,0.0345218 0,0.0189954 -0.0153974,0.0343928 -0.0345179,0.0345179l3.91094e-006 -0.00695756 0 -0.00695365c0.0114238,0 0.0207319,-0.00918288 0.0207319,-0.0206067 0,-0.0114278 -0.00931194,-0.0207397 -0.0207358,-0.0207397 -0.0114199,0 -0.0206145,0.00931585 -0.0206145,0.0207397 0,0.0114199 0.0091907,0.0206106 0.0206145,0.0206106l3.91094e-006 0.00694974 0 0.00695365z"/>
   <path id="_115883800" class="fil2" d="M5.63829 0.622101c-0.0189954,0 -0.0343928,-0.0155186 -0.0343928,-0.034514 0,-0.0191284 0.0153974,-0.0345218 0.0343928,-0.0345218 0.0191284,-3.91094e-006 0.0345218,0.0153974 0.0345218,0.0345218 3.91094e-006,0.0189954 -0.0153974,0.0343928 -0.0345218,0.0345179l0 -0.00695756 0 -0.00695365c0.0114238,0 0.0207397,-0.00918288 0.0207397,-0.0206067 0,-0.0114278 -0.00931585,-0.0207397 -0.0207397,-0.0207397 -0.0114238,0 -0.0206106,0.00931585 -0.0206106,0.0207397 3.91094e-006,0.0114199 0.00918679,0.0206106 0.0206106,0.0206106l0 0.00694974 0 0.00695365z"/>
   <path id="_115884808" class="fil2" d="M5.75104 0.725537c-0.0191167,0 -0.0345179,-0.0155186 -0.0345179,-0.0345179 3.91094e-006,-0.0189993 0.0153974,-0.0345179 0.0345179,-0.0345179 0.0190032,-3.91094e-006 0.0345218,0.0155225 0.0345218,0.0345179 3.91094e-006,0.0191206 -0.0155225,0.0345218 -0.0345218,0.0345218l0 -0.00695756 0 -0.0068285c0.0114238,0 0.0206145,-0.00931194 0.0206145,-0.0207358 3.91094e-006,-0.0114238 -0.0091907,-0.0206106 -0.0206145,-0.0207358 -0.0114238,0.000121239 -0.0207358,0.00931194 -0.0207358,0.0207358 0,0.0114238 0.00931194,0.0207397 0.0207358,0.0207397l0 0.00682459 0 0.00695365z"/>
   <path id="_115885720" class="fil2" d="M5.63606 0.725537c-0.0191284,0 -0.0345258,-0.0155186 -0.0345258,-0.0345179 0,-0.0189993 0.0153974,-0.0345179 0.0345218,-0.0345179 0.0189993,-3.91094e-006 0.0345179,0.0155225 0.0345179,0.0345179 0,0.0191206 -0.0155186,0.0345218 -0.0345179,0.0345218l3.91094e-006 -0.00695756 0 -0.0068285c0.0114238,0 0.0206067,-0.00931194 0.0207319,-0.0207358 -0.00012515,-0.0114238 -0.00931194,-0.0206106 -0.0207358,-0.0207358 -0.0114238,0.000121239 -0.0207358,0.00931194 -0.0207358,0.0207358 0,0.0114238 0.00931194,0.0207397 0.0207358,0.0207397l3.91094e-006 0.00682459 0 0.00695365z"/>
   <path id="_115883272" class="fil2" d="M5.52107 0.725537c-0.0189954,0 -0.0345179,-0.0155186 -0.0345179,-0.0345179 3.91094e-006,-0.0189993 0.0155225,-0.0345179 0.0345179,-0.0345179 0.0190032,-3.91094e-006 0.0345218,0.0155225 0.0345218,0.0345179 3.91094e-006,0.0191206 -0.0155225,0.0345218 -0.0345218,0.0345218l0 -0.00695756 0 -0.0068285c0.0114238,0 0.0207397,-0.00931194 0.0207397,-0.0207358 0,-0.0114238 -0.00931585,-0.0206106 -0.0207397,-0.0207358 -0.0114238,0.000121239 -0.0206106,0.00931194 -0.0207358,0.0207358 0.00012515,0.0114238 0.00931194,0.0207397 0.0207358,0.0207397l0 0.00682459 0 0.00695365z"/>
   <polygon id="_115883728" class="fil6" points="7.77802,0.515254 7.76425,0.515254 7.76425,0 7.77802,0 "/>
   <path id="_115883872" class="fil6" d="M7.8801 0.515211l0 -0.515211 0.0137861 0 0 0.515129c-0.00458362,5.08422e-005 -0.00918288,6.64859e-005 -0.0137861,8.21297e-005z"/>
   <path id="_115883512" class="fil6" d="M7.99595 0.510819l0 -0.510819 0.0139073 0 0 0.509744c-0.00267899,0.000219012 -0.00535407,0.00045758 -0.00804089,0.000664859l-0.000211191 1.56437e-005 -3.12875e-005 3.91094e-006 -0.000191636 1.17328e-005 -0.000211191 1.56437e-005 -0.0052211 0.000363717z"/>
   <path id="_115884160" class="fil6" d="M8.11193 0.498156l0 -0.498156 0.0137782 0 0 0.496091 -0.00130234 0.000211191 -0.000211191 3.12875e-005 -0.000211191 3.12875e-005 -0.000222923 3.91094e-005 -7.03969e-005 1.17328e-005 -0.000140794 1.95547e-005 -0.000219012 3.12875e-005 -0.000211191 3.12875e-005 -2.34656e-005 3.91094e-006c-0.00369975,0.000567086 -0.00744251,0.0011068 -0.0111657,0.00165433z"/>
   <path id="_115884256" class="fil6" d="M8.2279 0.476344l0 -0.476344 0.0137821 0 0 0.47309c-0.00112244,0.000269855 -0.00222923,0.000559264 -0.00335167,0.000829119l-3.51984e-005 7.82187e-006 -5.08422e-005 7.82187e-006 -0.000222923 5.47531e-005 -0.000211191 5.08422e-005c-0.00328519,0.000782187 -0.00660166,0.001537 -0.00991031,0.00230354z"/>
   <path id="_115885576" class="fil6" d="M8.34375 0.443751l0 -0.443751 0.01379 0 0 0.438995c-0.004435,0.00155264 -0.00886609,0.00310137 -0.0133637,0.00461491l-0.000195547 6.64859e-005 -1.95547e-005 3.91094e-006 -0.000211191 7.03969e-005z"/>
   <path id="_115884736" class="fil6" d="M8.45973 0.39678l0 -0.39678 0.0137821 0 0 0.38996c-0.00155655,0.000790009 -0.00308964,0.00159175 -0.00465402,0.00237394l-6.2575e-005 3.12875e-005 -0.000211191 0.000109506 -4.30203e-005 1.95547e-005 -0.00016817 8.21297e-005 -0.000222923 0.000109506c-0.00277677,0.00138056 -0.00560437,0.00273374 -0.00842025,0.00409475z"/>
   <path id="_115885672" class="fil6" d="M8.57559 0.327236l0 -0.327236 0.0137821 0 0 0.316524c-0.00219012,0.00175601 -0.00436852,0.00352375 -0.00660166,0.00526803l-0.000211191 0.000164259 -0.000222923 0.000172081 -0.000211191 0.000164259 -0.000222923 0.00016817c-0.00207671,0.00159957 -0.00419644,0.00318741 -0.00631225,0.00477525z"/>
   <path id="_115883224" class="fil6" d="M8.69156 0.194706l0 -0.194706 0.0137821 0 0 0.159918c-0.00107551,0.00349247 -0.00222923,0.0069732 -0.003469,0.0104344l-2.34656e-005 7.03969e-005c-0.0011811,0.00329692 -0.00244825,0.00657429 -0.00378579,0.00984383l-0.000285498 0.000700058c-0.00134145,0.0032539 -0.00275721,0.00649607 -0.0042551,0.0097265l-0.000195547 0.000406737c-0.000559264,0.00120848 -0.00118501,0.00240132 -0.00176774,0.00360588z"/>
   <path id="_115883704" class="fil7" d="M5.33927 2.88316l-0.0137821 0c0,-0.000539709 1.17328e-005,-0.00107551 1.17328e-005,-0.00161522 0,-0.0481788 -0.019496,-0.0917623 -0.051159,-0.123425 -0.0315378,-0.0316669 -0.0751252,-0.051159 -0.123425,-0.051159l0 -0.00683241 0 -0.00695365c0.104054,0 0.188366,0.0843159 0.188366,0.18837 0,0.000535798 -1.17328e-005,0.00107551 -1.17328e-005,0.00161522m-0.362802 0l-0.0138916 0c-1.56437e-005,-0.000539709 -3.12875e-005,-0.00107551 -3.12875e-005,-0.00161522 0.00012515,-0.104058 0.0844371,-0.18837 0.18837,-0.18837l0 0.00695365 0 0.0068285c-0.0481788,0 -0.0917662,0.019496 -0.123429,0.0511629 -0.0315378,0.0316629 -0.0510338,0.0752464 -0.0510338,0.123425 0,0.000535798 1.17328e-005,0.00107551 1.56437e-005,0.00161522z"/>
   <path id="_115883536" class="fil7" d="M5.26289 2.88316l-0.0137665 0c0,-0.000539709 1.17328e-005,-0.00107551 1.17328e-005,-0.00161522 0,-0.0270715 -0.0109272,-0.0516557 -0.028808,-0.0694113 -0.0177557,-0.0177596 -0.0422186,-0.0286828 -0.0694113,-0.0286828l0 -0.00695756 0 -0.00695365c0.0618397,0 0.112001,0.0501695 0.112001,0.112005 0,0.000535798 -1.17328e-005,0.00107551 -2.73766e-005,0.00161522m-0.210056 0l-0.0137821 0c0,-0.000539709 -1.56437e-005,-0.00107551 -1.56437e-005,-0.00161522 0,-0.0618397 0.0500404,-0.112001 0.11188,-0.112001l0 0.00694974 0 0.00695365c-0.0270676,0 -0.0515344,0.0109311 -0.0694152,0.0286867 -0.0177557,0.0177557 -0.0286828,0.0423437 -0.0286828,0.0694113 0,0.000535798 1.56437e-005,0.00107551 1.56437e-005,0.00161522z"/>
   <path id="_115883152" class="fil7" d="M5.20552 2.88316l-0.0137978 0c2.73766e-005,-0.000539709 3.91094e-005,-0.00107551 3.91094e-005,-0.00161522 3.91094e-006,-0.0226013 -0.0182523,-0.0408536 -0.0408497,-0.0408536l0 -0.00695365 0 -0.0068285c0.030298,0 0.0546358,0.0244629 0.0546358,0.0546358 0,0.000535798 -1.56437e-005,0.00107551 -3.12875e-005,0.00161522m-0.0953995 0l-0.0138134 0c-1.56437e-005,-0.000539709 -2.73766e-005,-0.00107551 -2.73766e-005,-0.00161522 0,-0.0301729 0.024459,-0.0546358 0.0546358,-0.0546358l0 0.0068285 0 0.00695365c-0.0224722,0 -0.0407285,0.0182563 -0.0408536,0.0408536 3.91094e-006,0.000535798 2.73766e-005,0.00107551 5.86641e-005,0.00161522z"/>
   <path id="_115884328" class="fil7" d="M5.43476 2.88316l-0.0137821 0c0,-0.000539709 1.17328e-005,-0.00107551 1.17328e-005,-0.00161522 0,-0.0746285 -0.0301729,-0.142053 -0.0790987,-0.190975 -0.0489219,-0.0489297 -0.11635,-0.0790987 -0.190975,-0.0790987l0 -0.00683241 0 -0.00695365c0.156829,0 0.283856,0.127031 0.283856,0.28386 0,0.000535798 -1.17328e-005,0.00107551 -1.17328e-005,0.00161522m-0.553906 0l-0.0137821 0c-1.17328e-005,-0.000539709 -1.56437e-005,-0.00107551 -1.56437e-005,-0.00161522 3.91094e-006,-0.156832 0.127152,-0.283856 0.28386,-0.283856l0 0.00694974 0 0.0068285c-0.0745033,0 -0.142053,0.0301768 -0.190979,0.0791026 -0.0487968,0.048918 -0.0790987,0.116346 -0.0790987,0.190975 0,0.000535798 0,0.00107551 1.56437e-005,0.00161522z"/>
   <path id="_115883992" class="fil7" d="M5.53037 2.88316l-0.0139073 0c0,-0.000539709 1.17328e-005,-0.00107551 1.17328e-005,-0.00161522 0,-0.100953 -0.0408536,-0.192344 -0.107038,-0.258525 -0.0661848,-0.0661887 -0.15745,-0.107038 -0.258525,-0.107038l0 -0.00695756 0 -0.0068285c0.209603,0 0.37947,0.169872 0.37947,0.379349 0,0.000535798 -1.56437e-005,0.00107551 -1.56437e-005,0.00161522m-0.745006 0l-0.0137821 0c0,-0.000539709 -1.56437e-005,-0.00107551 -1.56437e-005,-0.00161522 0,-0.209482 0.169868,-0.379345 0.379349,-0.379345l0 0.00682459 0 0.00695365c-0.100953,0 -0.192219,0.0408576 -0.258403,0.107042 -0.0661809,0.0661809 -0.10716,0.157572 -0.10716,0.258525 0,0.000535798 1.17328e-005,0.00107551 1.17328e-005,0.00161522z"/>
   <path id="_115884832" class="fil7" d="M5.64486 2.88316l-0.0137821 0c0,-0.000539709 1.17328e-005,-0.00107551 1.17328e-005,-0.00161522 0,-0.13262 -0.0536424,-0.252564 -0.140563,-0.339485 -0.0869167,-0.0869245 -0.206994,-0.140688 -0.33961,-0.140688l0 -0.00695756 0 -0.0068285c0.272929,0 0.493955,0.221152 0.493955,0.493959 3.91094e-006,0.000535798 -1.17328e-005,0.00107551 -1.17328e-005,0.00161522m-0.974105 0l-0.0137821 0c0,-0.000539709 -1.56437e-005,-0.00107551 -1.56437e-005,-0.00161522 3.91094e-006,-0.272807 0.221152,-0.493955 0.493959,-0.493955l0 0.00682459 0 0.00695365c-0.132616,0 -0.252568,0.0537715 -0.339489,0.140692 -0.0869206,0.0869167 -0.140688,0.206869 -0.140688,0.339485 0,0.000535798 1.56437e-005,0.00107551 1.56437e-005,0.00161522z"/>
   <path id="_115883248" class="fil7" d="M5.76903 2.88316l-0.0137821 0c0,-0.000539709 1.17328e-005,-0.00107551 1.17328e-005,-0.00161522 0,-0.166891 -0.0675497,-0.318006 -0.176946,-0.427278 -0.109397,-0.109397 -0.260511,-0.177068 -0.427399,-0.177068l0 -0.00683241 0 -0.00695365c0.341476,0 0.618128,0.276781 0.618128,0.618131 3.91094e-006,0.000535798 -1.17328e-005,0.00107551 -1.17328e-005,0.00161522m-1.22232 0l-0.0139073 0c0,-0.000539709 -1.56437e-005,-0.00107551 -1.56437e-005,-0.00161522 3.91094e-006,-0.34135 0.276781,-0.618128 0.618131,-0.618128l0 0.00694974 0 0.0068285c-0.166888,0 -0.317881,0.0676788 -0.427278,0.177072 -0.109397,0.109272 -0.176946,0.26039 -0.176946,0.427278 0,0.000535798 1.56437e-005,0.00107551 1.56437e-005,0.00161522z"/>
   <path id="_115884016" class="fil7" d="M5.87408 2.88316l-0.0137861 0c0,-0.000539709 1.17328e-005,-0.00107551 1.17328e-005,-0.00161522 3.91094e-006,-0.195946 -0.0793451,-0.37326 -0.207737,-0.501656 -0.128396,-0.128396 -0.305714,-0.207741 -0.501656,-0.207741l0 -0.00683241 0 -0.00695365c0.399459,0 0.723179,0.32372 0.723179,0.723183 0,0.000535798 -1.56437e-005,0.00107551 -1.56437e-005,0.00161522m-1.43254 0l-0.0137861 0c0,-0.000539709 -1.17328e-005,-0.00107551 -1.17328e-005,-0.00161522 0,-0.399463 0.323841,-0.723179 0.723179,-0.723179l0 0.00694974 0 0.00683241c-0.195821,0 -0.373139,0.079349 -0.501535,0.207741 -0.128392,0.128392 -0.207862,0.305714 -0.207862,0.501656 0,0.000535798 1.17328e-005,0.00107551 1.56437e-005,0.00161522z"/>
   <path id="_115723264" class="fil7" d="M0 3.02343l0 -0.0269346c0.0160896,-0.0303919 0.025206,-0.0650232 0.025206,-0.10179 0,-0.036841 -0.00911639,-0.0715115 -0.025206,-0.101919l0 -0.0269033c0.0246272,0.0368488 0.0389881,0.0811676 0.0389881,0.128822l0 -3.91094e-006c0,0.0476157 -0.014361,0.0918914 -0.0389881,0.128728m0.0389881 -0.128728l0 0z"/>
   <path id="_115724320" class="fil7" d="M0 3.13679l0 -0.0179903c0.00556526,-0.00480263 0.0109467,-0.0097969 0.0161404,-0.0149828 0.0536424,-0.0535212 0.0866742,-0.127403 0.0866742,-0.209106 0,-0.0817073 -0.0330318,-0.155714 -0.0866742,-0.209231 -0.00518981,-0.00518981 -0.0105752,-0.0101958 -0.0161404,-0.0149828l0 -0.0179825c0.0710617,0.0567203 0.116597,0.144114 0.116597,0.242197l0 -3.91094e-006c0,0.0980003 -0.045535,0.185363 -0.116597,0.242083m0.116597 -0.242083l0 0z"/>
   <path id="_115722784" class="fil7" d="M0 3.24824l0 -0.0157415c0.0301142,-0.0172316 0.0577059,-0.0383702 0.0820788,-0.0627471 0.0704047,-0.0704086 0.113863,-0.167634 0.113863,-0.275041 0,-0.107535 -0.0434583,-0.204636 -0.113863,-0.275166 -0.024373,-0.0243808 -0.0519646,-0.0455155 -0.0820788,-0.062751l0 -0.0157298c0.12497,0.0683632 0.209767,0.201093 0.209849,0.353646l0 -3.91094e-006c-8.21297e-005,0.152472 -0.0848791,0.28517 -0.209849,0.353533m0.209849 -0.353533l0 0z"/>
   <path id="_115723216" class="fil7" d="M0 3.36005l0 -0.0150102c0.0576785,-0.0247641 0.109674,-0.0602793 0.153477,-0.104015 0.088657,-0.088657 0.143418,-0.211093 0.143418,-0.346313 0,-0.135354 -0.0547609,-0.257782 -0.143418,-0.346443 -0.0438025,-0.0437399 -0.0957984,-0.0792473 -0.153477,-0.104015l0 -0.0150102c0.182387,0.0757314 0.310677,0.255588 0.310677,0.465468l0 -3.91094e-006c0,0.209787 -0.12829,0.389615 -0.310677,0.465347m0.310677 -0.465347l0 0z"/>
   <path id="_115723744" class="fil7" d="M0 3.45144l0 -0.0146504c0.0812145,-0.0289331 0.154048,-0.0755789 0.213827,-0.135291 0.104054,-0.104183 0.168499,-0.247973 0.168499,-0.406788 0,-0.158944 -0.0644444,-0.302734 -0.168499,-0.406788 -0.0597787,-0.0597865 -0.132612,-0.106432 -0.213827,-0.135334l0 -0.0147364c0.23055,0.0799083 0.396108,0.299019 0.396108,0.556859l0 -3.91094e-006c0,0.257742 -0.165558,0.476825 -0.396108,0.556738m0.396108 -0.556738l0 0z"/>
   <path id="_115723720" class="fil7" d="M10.3427 3.95538c-0.0230745,-0.0269737 -0.0370131,-0.0619766 -0.0370131,-0.100206l7.82187e-006 0c0,-0.0382881 0.0139268,-0.0733183 0.0369975,-0.100319l7.82187e-006 0.0229181c-0.0146699,0.0221985 -0.0232271,0.048785 -0.0232271,0.0774014l0 0c0,0.0285186 0.00855322,0.0550777 0.0232192,0.0772762l7.82187e-006 0.0229298z"/>
   <path id="_115723456" class="fil7" d="M10.3427 4.05529c-0.0685587,-0.0402905 -0.114618,-0.114806 -0.114618,-0.200111l3.91094e-006 0c0,-0.0853093 0.0460513,-0.159879 0.114606,-0.200209l7.82187e-006 0.0161835c-0.0133558,0.00855322 -0.0257261,0.0185183 -0.036888,0.0296801 -0.0394848,0.0394848 -0.0639477,0.0939955 -0.0639477,0.154345l0 0c0,0.0602206 0.0244629,0.114735 0.0639477,0.15422 0.0111696,0.0111618 0.0235243,0.021123 0.0368801,0.0296801l7.82187e-006 0.0162108z"/>
   <path id="_115723240" class="fil7" d="M10.3427 4.14173c-0.112795,-0.0462195 -0.192226,-0.157102 -0.192226,-0.286547l7.82187e-006 0c0,-0.129542 0.0794194,-0.24044 0.192211,-0.286672l7.82187e-006 0.0149945c-0.0344827,0.014928 -0.0655708,0.0362466 -0.0917701,0.0624459 -0.0535212,0.0535173 -0.0866742,0.127403 -0.0866742,0.209231l0 0c0,0.0817034 0.033153,0.155589 0.0866742,0.209106 0.0261994,0.0261994 0.0572835,0.0475179 0.0917623,0.0624459l7.82187e-006 0.0149945z"/>
   <path id="_115722952" class="fil7" d="M10.3427 4.2405c-0.165167,-0.0502321 -0.285358,-0.203736 -0.285358,-0.385317l7.82187e-006 0c0,-0.181679 0.120179,-0.33521 0.285342,-0.385446l7.82187e-006 0.014447c-0.0602323,0.0190384 -0.114109,0.0523049 -0.157709,0.0958336 -0.0704047,0.0705298 -0.113863,0.167631 -0.113863,0.275166l0 0c0,0.107406 0.0434583,0.204636 0.113863,0.275041 0.0435991,0.0435991 0.0974762,0.0768616 0.157701,0.0958766l7.82187e-006 0.0144001z"/>
   <path id="_115722736" class="fil7" d="M10.3427 4.34505c-0.221586,-0.0529111 -0.386307,-0.252165 -0.386307,-0.489872l0 0c0,-0.23782 0.164721,-0.437086 0.386299,-0.489997l7.82187e-006 0.0141967c-0.0881408,0.0216861 -0.166856,0.0672329 -0.228981,0.129358 -0.0886609,0.0886609 -0.143543,0.211093 -0.143543,0.346443l7.82187e-006 0c0,0.135221 0.0548744,0.257656 0.143535,0.346317 0.0621331,0.0621252 0.140837,0.107668 0.228974,0.129358l7.82187e-006 0.0141967z"/>
   <path id="_115722496" class="fil7" d="M10.3427 4.43255c-0.269096,-0.0544011 -0.471737,-0.292233 -0.471737,-0.577372l0 0c0,-0.285252 0.202633,-0.523002 0.471729,-0.577387l7.82187e-006 0.0140716c-0.111763,0.0231527 -0.211652,0.0787272 -0.289452,0.156527 -0.10405,0.104054 -0.168378,0.247848 -0.168378,0.406788l0 0c0,0.158815 0.0643193,0.302609 0.168378,0.406788 0.0778003,0.0777181 0.17769,0.13325 0.289445,0.156457l7.82187e-006 0.0141263z"/>
   <g style="clip-path:url(#id0)">
    <image id="_115723984" transform="matrix(1 0 0 -1 -2.67072 4.21672)" x="5.20582" y="4.16166" width="0.044702" height="0.0437086" xlink:href="final_Images\final_ImgID1.png"/>
   </g>
   <path id="_115722904" class="fil8" d="M2.6964 0.305589c-0.0016817,0 -0.00329692,-0.000246389 -0.00484174,-0.000696147l0 -0.0335011c0.00154482,-0.000449758 0.00316004,-0.000692236 0.00484174,-0.000692236 0.00968739,-3.91094e-006 0.0175093,0.00782187 0.0175093,0.0175054 0,0.00955833 -0.00782187,0.0173841 -0.0175093,0.0173841z"/>
   <g style="clip-path:url(#id1)">
    <image id="_115723336" transform="matrix(1 0 0 -1 -2.53164 4.47103)" x="5.20582" y="4.16066" width="0.0208609" height="0.044702" xlink:href="final_Images\final_ImgID2.png"/>
   </g>
   <path id="_115723840" class="fil8" d="M2.6964 0.049794c-0.0016817,0 -0.00329692,-0.000246389 -0.00484174,-0.000696147l0 -0.0335128c0.00154482,-0.000441936 0.00316004,-0.000680503 0.00484174,-0.000680503 0.00968739,-3.91094e-006 0.0175093,0.00769672 0.0175093,0.0173841 0,0.00967957 -0.00782187,0.0175054 -0.0175093,0.0175054z"/>
   <g style="clip-path:url(#id2)">
    <image id="_115723120" transform="matrix(1 0 0 -1 -2.53164 4.21672)" x="5.20582" y="4.16464" width="0.0208609" height="0.0407285" xlink:href="final_Images\final_ImgID3.png"/>
   </g>
   <path id="_115724272" class="fil8" d="M2.83597 0.549835c-0.00956224,0 -0.0173841,-0.00782187 -0.0173841,-0.0173802 0,-0.0096913 0.00782187,-0.0175093 0.0173841,-0.0175093 0.00968739,-3.91094e-006 0.0175093,0.00782187 0.0175093,0.0175093 0,0.00955833 -0.00782187,0.0173841 -0.0175093,0.0173802z"/>
   <path id="_115722856" class="fil8" d="M2.83597 0.305589c-0.00956224,0 -0.0173841,-0.00782187 -0.0173841,-0.0173841 0,-0.00968739 0.00782187,-0.0175054 0.0173841,-0.0175054 0.00968739,-3.91094e-006 0.0175093,0.00782187 0.0175093,0.0175054 0,0.00955833 -0.00782187,0.0173841 -0.0175093,0.0173841z"/>
   <path id="_115723360" class="fil8" d="M2.83597 0.049794c-0.00956224,0 -0.0173841,-0.00782187 -0.0173841,-0.0175054 0,-0.0096913 0.00782187,-0.0173841 0.0173841,-0.0173841 0.00968739,-3.91094e-006 0.0175093,0.00769672 0.0175093,0.0173841 0,0.00967957 -0.00782187,0.0175054 -0.0175093,0.0175054z"/>
   <path id="_115723816" class="fil8" d="M2.98386 0.805755c-0.00968739,0 -0.0175093,-0.00782187 -0.0175093,-0.0175054 0,-0.0096913 0.00782187,-0.0173841 0.0175093,-0.0173841 0.00968348,-3.91094e-006 0.0175054,0.00769672 0.0175054,0.0173841 0,0.00967957 -0.00782187,0.0175054 -0.0175054,0.0175054z"/>
   <path id="_115723000" class="fil8" d="M2.98386 0.549835c-0.00968739,0 -0.0175093,-0.00782187 -0.0175093,-0.0173802 0,-0.0096913 0.00782187,-0.0175093 0.0175093,-0.0175093 0.00968348,-3.91094e-006 0.0175054,0.00782187 0.0175054,0.0175093 0,0.00955833 -0.00782187,0.0173841 -0.0175054,0.0173802z"/>
   <path id="_115722832" class="fil8" d="M2.98386 0.305589c-0.00968739,0 -0.0175093,-0.00782187 -0.0175093,-0.0173841 0,-0.00968739 0.00782187,-0.0175054 0.0175093,-0.0175054 0.00968348,-3.91094e-006 0.0175054,0.00782187 0.0175054,0.0175054 0,0.00955833 -0.00782187,0.0173841 -0.0175054,0.0173841z"/>
   <path id="_116548440" class="fil8" d="M2.98386 0.049794c-0.00968739,0 -0.0175093,-0.00782187 -0.0175093,-0.0175054 0,-0.0096913 0.00782187,-0.0173841 0.0175093,-0.0173841 0.00968348,-3.91094e-006 0.0175054,0.00769672 0.0175054,0.0173841 0,0.00967957 -0.00782187,0.0175054 -0.0175054,0.0175054z"/>
   <path id="_116547696" class="fil8" d="M3.12343 1.06155c-0.00968348,0 -0.0175054,-0.00782187 -0.0175054,-0.0173841 0,-0.00968739 0.00782187,-0.0175054 0.0175054,-0.0175054 0.00968739,-3.91094e-006 0.0173841,0.00782187 0.0173841,0.0175054 0,0.00955833 -0.00769672,0.0173841 -0.0173841,0.0173841z"/>
   <path id="_116547552" class="fil8" d="M3.12343 0.805755c-0.00968348,0 -0.0175054,-0.00782187 -0.0175054,-0.0175054 0,-0.0096913 0.00782187,-0.0173841 0.0175054,-0.0173841 0.00968739,-3.91094e-006 0.0173841,0.00769672 0.0173841,0.0173841 0,0.00967957 -0.00769672,0.0175054 -0.0173841,0.0175054z"/>
   <path id="_116547000" class="fil8" d="M3.12343 0.549835c-0.00968348,0 -0.0175054,-0.00782187 -0.0175054,-0.0173802 0,-0.0096913 0.00782187,-0.0175093 0.0175054,-0.0175093 0.00968739,-3.91094e-006 0.0173841,0.00782187 0.0173841,0.0175093 0,0.00955833 -0.00769672,0.0173841 -0.0173841,0.0173802z"/>
   <path id="_116547792" class="fil8" d="M3.12343 0.305589c-0.00968348,0 -0.0175054,-0.00782187 -0.0175054,-0.0173841 0,-0.00968739 0.00782187,-0.0175054 0.0175054,-0.0175054 0.00968739,-3.91094e-006 0.0173841,0.00782187 0.0173841,0.0175054 0,0.00955833 -0.00769672,0.0173841 -0.0173841,0.0173841z"/>
   <path id="_116547504" class="fil8" d="M3.12343 0.049794c-0.00968348,0 -0.0175054,-0.00782187 -0.0175054,-0.0175054 0,-0.0096913 0.00782187,-0.0173841 0.0175054,-0.0173841 0.00968739,-3.91094e-006 0.0173841,0.00769672 0.0173841,0.0173841 0,0.00967957 -0.00769672,0.0175054 -0.0173841,0.0175054z"/>
   <path id="_116548560" class="fil8" d="M3.263 1.3058c-0.00968348,0 -0.0175054,-0.00782187 -0.0175054,-0.0173802 0,-0.0096913 0.00782187,-0.0175093 0.0175054,-0.0175093 0.00956615,-3.91094e-006 0.0173841,0.00782187 0.0173841,0.0175093 0,0.00955833 -0.00782187,0.0173841 -0.0173841,0.0173802z"/>
   <path id="_116547528" class="fil8" d="M3.263 1.06155c-0.00968348,0 -0.0175054,-0.00782187 -0.0175054,-0.0173841 0,-0.00968739 0.00782187,-0.0175054 0.0175054,-0.0175054 0.00956615,-3.91094e-006 0.0173841,0.00782187 0.0173841,0.0175054 0,0.00955833 -0.00782187,0.0173841 -0.0173841,0.0173841z"/>
   <path id="_116548536" class="fil8" d="M3.263 0.805755c-0.00968348,0 -0.0175054,-0.00782187 -0.0175054,-0.0175054 0,-0.0096913 0.00782187,-0.0173841 0.0175054,-0.0173841 0.00956615,-3.91094e-006 0.0173841,0.00769672 0.0173841,0.0173841 0,0.00967957 -0.00782187,0.0175054 -0.0173841,0.0175054z"/>
   <path id="_116547672" class="fil8" d="M3.263 0.549835c-0.00968348,0 -0.0175054,-0.00782187 -0.0175054,-0.0173802 0,-0.0096913 0.00782187,-0.0175093 0.0175054,-0.0175093 0.00956615,-3.91094e-006 0.0173841,0.00782187 0.0173841,0.0175093 0,0.00955833 -0.00782187,0.0173841 -0.0173841,0.0173802z"/>
   <path id="_116547288" class="fil8" d="M3.263 0.305589c-0.00968348,0 -0.0175054,-0.00782187 -0.0175054,-0.0173841 0,-0.00968739 0.00782187,-0.0175054 0.0175054,-0.0175054 0.00956615,-3.91094e-006 0.0173841,0.00782187 0.0173841,0.0175054 0,0.00955833 -0.00782187,0.0173841 -0.0173841,0.0173841z"/>
   <path id="_116547024" class="fil8" d="M3.263 0.049794c-0.00968348,0 -0.0175054,-0.00782187 -0.0175054,-0.0175054 0,-0.0096913 0.00782187,-0.0173841 0.0175054,-0.0173841 0.00956615,-3.91094e-006 0.0173841,0.00769672 0.0173841,0.0173841 0,0.00967957 -0.00782187,0.0175054 -0.0173841,0.0175054z"/>
   <path id="_116546976" class="fil8" d="M3.41089 1.56172c-0.00968739,0 -0.0175093,-0.00782187 -0.0175093,-0.0175054 0,-0.00956615 0.00782187,-0.0173841 0.0175093,-0.0173841 0.00956224,-3.91094e-006 0.0173841,0.00782187 0.0173841,0.0173841 0,0.00967957 -0.00782187,0.0175054 -0.0173841,0.0175054z"/>
   <path id="_116547480" class="fil8" d="M3.41089 1.3058c-0.00968739,0 -0.0175093,-0.00782187 -0.0175093,-0.0173802 0,-0.0096913 0.00782187,-0.0175093 0.0175093,-0.0175093 0.00956224,-3.91094e-006 0.0173841,0.00782187 0.0173841,0.0175093 0,0.00955833 -0.00782187,0.0173841 -0.0173841,0.0173802z"/>
   <path id="_116547840" class="fil8" d="M3.41089 1.06155c-0.00968739,0 -0.0175093,-0.00782187 -0.0175093,-0.0173841 0,-0.00968739 0.00782187,-0.0175054 0.0175093,-0.0175054 0.00956224,-3.91094e-006 0.0173841,0.00782187 0.0173841,0.0175054 0,0.00955833 -0.00782187,0.0173841 -0.0173841,0.0173841z"/>
   <path id="_116547192" class="fil8" d="M3.41089 0.805755c-0.00968739,0 -0.0175093,-0.00782187 -0.0175093,-0.0175054 0,-0.0096913 0.00782187,-0.0173841 0.0175093,-0.0173841 0.00956224,-3.91094e-006 0.0173841,0.00769672 0.0173841,0.0173841 0,0.00967957 -0.00782187,0.0175054 -0.0173841,0.0175054z"/>
   <path id="_116548800" class="fil8" d="M3.41089 0.549835c-0.00968739,0 -0.0175093,-0.00782187 -0.0175093,-0.0173802 0,-0.0096913 0.00782187,-0.0175093 0.0175093,-0.0175093 0.00956224,-3.91094e-006 0.0173841,0.00782187 0.0173841,0.0175093 0,0.00955833 -0.00782187,0.0173841 -0.0173841,0.0173802z"/>
   <path id="_116548728" class="fil8" d="M3.41089 0.305589c-0.00968739,0 -0.0175093,-0.00782187 -0.0175093,-0.0173841 0,-0.00968739 0.00782187,-0.0175054 0.0175093,-0.0175054 0.00956224,-3.91094e-006 0.0173841,0.00782187 0.0173841,0.0175054 0,0.00955833 -0.00782187,0.0173841 -0.0173841,0.0173841z"/>
   <path id="_116548512" class="fil8" d="M3.41089 0.049794c-0.00968739,0 -0.0175093,-0.00782187 -0.0175093,-0.0175054 0,-0.0096913 0.00782187,-0.0173841 0.0175093,-0.0173841 0.00956224,-3.91094e-006 0.0173841,0.00769672 0.0173841,0.0173841 0,0.00967957 -0.00782187,0.0175054 -0.0173841,0.0175054z"/>
   <path id="_116548080" class="fil8" d="M3.55046 1.56172c-0.00968348,0 -0.0175093,-0.00782187 -0.0175093,-0.0175054 0,-0.00956615 0.00782187,-0.0173841 0.0175093,-0.0173841 0.00955833,-3.91094e-006 0.0173841,0.00782187 0.0173841,0.0173841 0,0.00967957 -0.00782578,0.0175054 -0.0173841,0.0175054z"/>
   <path id="_116547768" class="fil8" d="M3.55046 1.3058c-0.00968348,0 -0.0175093,-0.00782187 -0.0175093,-0.0173802 0,-0.0096913 0.00782187,-0.0175093 0.0175093,-0.0175093 0.00955833,-3.91094e-006 0.0173841,0.00782187 0.0173841,0.0175093 0,0.00955833 -0.00782578,0.0173841 -0.0173841,0.0173802z"/>
   <path id="_116546928" class="fil8" d="M3.55046 1.06155c-0.00968348,0 -0.0175093,-0.00782187 -0.0175093,-0.0173841 0,-0.00968739 0.00782187,-0.0175054 0.0175093,-0.0175054 0.00955833,-3.91094e-006 0.0173841,0.00782187 0.0173841,0.0175054 0,0.00955833 -0.00782578,0.0173841 -0.0173841,0.0173841z"/>
   <path id="_116548248" class="fil8" d="M3.55046 0.805755c-0.00968348,0 -0.0175093,-0.00782187 -0.0175093,-0.0175054 0,-0.0096913 0.00782187,-0.0173841 0.0175093,-0.0173841 0.00955833,-3.91094e-006 0.0173841,0.00769672 0.0173841,0.0173841 0,0.00967957 -0.00782578,0.0175054 -0.0173841,0.0175054z"/>
   <path id="_116548296" class="fil8" d="M3.55046 0.549835c-0.00968348,0 -0.0175093,-0.00782187 -0.0175093,-0.0173802 0,-0.0096913 0.00782187,-0.0175093 0.0175093,-0.0175093 0.00955833,-3.91094e-006 0.0173841,0.00782187 0.0173841,0.0175093 0,0.00955833 -0.00782578,0.0173841 -0.0173841,0.0173802z"/>
   <path id="_116547960" class="fil8" d="M3.55046 0.305589c-0.00968348,0 -0.0175093,-0.00782187 -0.0175093,-0.0173841 0,-0.00968739 0.00782187,-0.0175054 0.0175093,-0.0175054 0.00955833,-3.91094e-006 0.0173841,0.00782187 0.0173841,0.0175054 0,0.00955833 -0.00782578,0.0173841 -0.0173841,0.0173841z"/>
   <path id="_116547168" class="fil8" d="M3.55046 0.049794c-0.00968348,0 -0.0175093,-0.00782187 -0.0175093,-0.0175054 0,-0.0096913 0.00782187,-0.0173841 0.0175093,-0.0173841 0.00955833,-3.91094e-006 0.0173841,0.00769672 0.0173841,0.0173841 0,0.00967957 -0.00782578,0.0175054 -0.0173841,0.0175054z"/>
   <path id="_116547336" class="fil8" d="M3.69003 1.3058c-0.00968348,0 -0.0175093,-0.00782187 -0.0175093,-0.0173802 0,-0.0096913 0.00782187,-0.0175093 0.0175093,-0.0175093 0.00955833,-3.91094e-006 0.0173841,0.00782187 0.0173841,0.0175093 0,0.00955833 -0.00782578,0.0173841 -0.0173841,0.0173802z"/>
   <path id="_116607560" class="fil8" d="M3.69003 1.06155c-0.00968348,0 -0.0175093,-0.00782187 -0.0175093,-0.0173841 0,-0.00968739 0.00782187,-0.0175054 0.0175093,-0.0175054 0.00955833,-3.91094e-006 0.0173841,0.00782187 0.0173841,0.0175054 0,0.00955833 -0.00782578,0.0173841 -0.0173841,0.0173841z"/>
   <path id="_116608784" class="fil8" d="M3.69003 0.805755c-0.00968348,0 -0.0175093,-0.00782187 -0.0175093,-0.0175054 0,-0.0096913 0.00782187,-0.0173841 0.0175093,-0.0173841 0.00955833,-3.91094e-006 0.0173841,0.00769672 0.0173841,0.0173841 0,0.00967957 -0.00782578,0.0175054 -0.0173841,0.0175054z"/>
   <path id="_116607416" class="fil8" d="M3.69003 0.549835c-0.00968348,0 -0.0175093,-0.00782187 -0.0175093,-0.0173802 0,-0.0096913 0.00782187,-0.0175093 0.0175093,-0.0175093 0.00955833,-3.91094e-006 0.0173841,0.00782187 0.0173841,0.0175093 0,0.00955833 -0.00782578,0.0173841 -0.0173841,0.0173802z"/>
   <path id="_116608928" class="fil8" d="M3.69003 0.305589c-0.00968348,0 -0.0175093,-0.00782187 -0.0175093,-0.0173841 0,-0.00968739 0.00782187,-0.0175054 0.0175093,-0.0175054 0.00955833,-3.91094e-006 0.0173841,0.00782187 0.0173841,0.0175054 0,0.00955833 -0.00782578,0.0173841 -0.0173841,0.0173841z"/>
   <path id="_116608328" class="fil8" d="M3.69003 0.049794c-0.00968348,0 -0.0175093,-0.00782187 -0.0175093,-0.0175054 0,-0.0096913 0.00782187,-0.0173841 0.0175093,-0.0173841 0.00955833,-3.91094e-006 0.0173841,0.00769672 0.0173841,0.0173841 0,0.00967957 -0.00782578,0.0175054 -0.0173841,0.0175054z"/>
   <path id="_116607392" class="fil8" d="M3.83779 1.06155c-0.00955833,0 -0.0173841,-0.00782187 -0.0173841,-0.0173841 3.91094e-006,-0.00968739 0.00782578,-0.0175054 0.0173841,-0.0175054 0.00968739,-3.91094e-006 0.0175093,0.00782187 0.0175093,0.0175054 0,0.00955833 -0.00782187,0.0173841 -0.0175093,0.0173841z"/>
   <path id="_116608976" class="fil8" d="M3.83779 0.805755c-0.00955833,0 -0.0173841,-0.00782187 -0.0173841,-0.0175054 3.91094e-006,-0.0096913 0.00782578,-0.0173841 0.0173841,-0.0173841 0.00968739,-3.91094e-006 0.0175093,0.00769672 0.0175093,0.0173841 0,0.00967957 -0.00782187,0.0175054 -0.0175093,0.0175054z"/>
   <path id="_116608664" class="fil8" d="M3.83779 0.549835c-0.00955833,0 -0.0173841,-0.00782187 -0.0173841,-0.0173802 3.91094e-006,-0.0096913 0.00782578,-0.0175093 0.0173841,-0.0175093 0.00968739,-3.91094e-006 0.0175093,0.00782187 0.0175093,0.0175093 0,0.00955833 -0.00782187,0.0173841 -0.0175093,0.0173802z"/>
   <path id="_116608952" class="fil8" d="M3.83779 0.305589c-0.00955833,0 -0.0173841,-0.00782187 -0.0173841,-0.0173841 3.91094e-006,-0.00968739 0.00782578,-0.0175054 0.0173841,-0.0175054 0.00968739,-3.91094e-006 0.0175093,0.00782187 0.0175093,0.0175054 0,0.00955833 -0.00782187,0.0173841 -0.0175093,0.0173841z"/>
   <path id="_116607632" class="fil8" d="M3.83779 0.049794c-0.00955833,0 -0.0173841,-0.00782187 -0.0173841,-0.0175054 3.91094e-006,-0.0096913 0.00782578,-0.0173841 0.0173841,-0.0173841 0.00968739,-3.91094e-006 0.0175093,0.00769672 0.0175093,0.0173841 0,0.00967957 -0.00782187,0.0175054 -0.0175093,0.0175054z"/>
   <path id="_116607800" class="fil8" d="M3.97736 0.805755c-0.00956224,0 -0.0173841,-0.00782187 -0.0173841,-0.0175054 3.91094e-006,-0.0096913 0.00782187,-0.0173841 0.0173841,-0.0173841 0.00968739,-3.91094e-006 0.0175093,0.00769672 0.0175093,0.0173841 0,0.00967957 -0.00782187,0.0175054 -0.0175093,0.0175054z"/>
   <path id="_116607344" class="fil8" d="M3.97736 0.549835c-0.00956224,0 -0.0173841,-0.00782187 -0.0173841,-0.0173802 3.91094e-006,-0.0096913 0.00782187,-0.0175093 0.0173841,-0.0175093 0.00968739,-3.91094e-006 0.0175093,0.00782187 0.0175093,0.0175093 0,0.00955833 -0.00782187,0.0173841 -0.0175093,0.0173802z"/>
   <path id="_116608040" class="fil8" d="M3.97736 0.305589c-0.00956224,0 -0.0173841,-0.00782187 -0.0173841,-0.0173841 3.91094e-006,-0.00968739 0.00782187,-0.0175054 0.0173841,-0.0175054 0.00968739,-3.91094e-006 0.0175093,0.00782187 0.0175093,0.0175054 0,0.00955833 -0.00782187,0.0173841 -0.0175093,0.0173841z"/>
   <path id="_116607752" class="fil8" d="M3.97736 0.049794c-0.00956224,0 -0.0173841,-0.00782187 -0.0173841,-0.0175054 3.91094e-006,-0.0096913 0.00782187,-0.0173841 0.0173841,-0.0173841 0.00968739,-3.91094e-006 0.0175093,0.00769672 0.0175093,0.0173841 0,0.00967957 -0.00782187,0.0175054 -0.0175093,0.0175054z"/>
   <path id="_116607104" class="fil8" d="M4.11693 0.549835c-0.00956224,0 -0.0173841,-0.00782187 -0.0173841,-0.0173802 3.91094e-006,-0.0096913 0.00782187,-0.0175093 0.0173841,-0.0175093 0.00968739,-3.91094e-006 0.0175093,0.00782187 0.0175093,0.0175093 0,0.00955833 -0.00782187,0.0173841 -0.0175093,0.0173802z"/>
   <path id="_116607008" class="fil8" d="M4.11693 0.305589c-0.00956224,0 -0.0173841,-0.00782187 -0.0173841,-0.0173841 3.91094e-006,-0.00968739 0.00782187,-0.0175054 0.0173841,-0.0175054 0.00968739,-3.91094e-006 0.0175093,0.00782187 0.0175093,0.0175054 0,0.00955833 -0.00782187,0.0173841 -0.0175093,0.0173841z"/>
   <path id="_116607224" class="fil8" d="M4.11693 0.049794c-0.00956224,0 -0.0173841,-0.00782187 -0.0173841,-0.0175054 3.91094e-006,-0.0096913 0.00782187,-0.0173841 0.0173841,-0.0173841 0.00968739,-3.91094e-006 0.0175093,0.00769672 0.0175093,0.0173841 0,0.00967957 -0.00782187,0.0175054 -0.0175093,0.0175054z"/>
   <path id="_116608208" class="fil8" d="M4.26482 0.305589c-0.00968739,0 -0.0173841,-0.00782187 -0.0173841,-0.0173841 0,-0.00968739 0.00769672,-0.0175054 0.0173841,-0.0175054 0.00968739,-3.91094e-006 0.0173841,0.00782187 0.0173841,0.0175054 0,0.00955833 -0.00770063,0.0173841 -0.0173841,0.0173841z"/>
   <path id="_116608304" class="fil8" d="M4.26482 0.049794c-0.00968739,0 -0.0173841,-0.00782187 -0.0173841,-0.0175054 0,-0.0096913 0.00769672,-0.0173841 0.0173841,-0.0173841 0.00968739,-3.91094e-006 0.0173841,0.00769672 0.0173841,0.0173841 0,0.00967957 -0.00770063,0.0175054 -0.0173841,0.0175054z"/>
   <path id="_116607296" class="fil8" d="M4.40439 0.049794c-0.00968348,0 -0.0175093,-0.00782187 -0.0175093,-0.0175054 0,-0.0096913 0.00782187,-0.0173841 0.0175093,-0.0173841 0.00955833,-3.91094e-006 0.0173841,0.00769672 0.0173841,0.0173841 0,0.00967957 -0.00782578,0.0175054 -0.0173841,0.0175054z"/>
   <path id="_116607056" class="fil8" d="M4.52738 0.0379283c-0.000594462,-0.00177165 -0.000926892,-0.00366455 -0.000926892,-0.00563957 0,-0.00849456 0.00601111,-0.015456 0.0140246,-0.0170439l-0.00937452 0.0162382 -0.00372321 0.00644522z"/>
   <path id="_116607896" class="fil9" d="M2.11383 3.55358l-0.125385 0 0 -0.125439 0.125385 0 0 0.122608 0 0.00283152m-0.00278068 -0.00283152l0 0 0 -0.00278068 0 0.00278068m-0.116992 -0.116945l0 0.114164 0.114164 0 0 -0.114164 -0.114164 0z"/>
   <path id="_116607872" class="fil0" d="M8.5058 1.9305l-0.308065 0 0 -0.308194 0.308065 0 0 0.30124 0 0.00695365m-0.00695365 -0.00695365l0 0 0 -0.00695365 0 0.00695365m-0.287333 -0.287458l0 0.280504 0.280504 0 0 -0.280504 -0.280504 0z"/>
   <polygon id="_116607032" class="fil0" points="7.45033,2.56279 6.90547,2.01792 7.45033,2.01792 "/>
   <polygon id="_116608832" class="fil0" points="6.88225,1.9947 6.33738,1.44984 6.88225,1.44984 "/>
   <polygon id="_116608400" class="fil4" points="6.8887,4.21366 6.86908,4.19417 7.38291,3.68034 7.40241,3.69984 "/>
   <polygon id="_116608544" class="fil9" points="6.73262,4.26569 6.713,4.24619 7.22682,3.73237 7.24632,3.75187 "/>
   <polygon id="_116608376" class="fil4" points="6.84313,4.37621 6.82364,4.35671 7.33746,3.84301 7.35696,3.8625 "/>
   <polygon id="_116979320" class="fil2" points="2.89992,2.79599 2.87993,2.77699 3.37972,2.24963 3.39971,2.26863 "/>
   <polygon id="_116979224" class="fil7" points="3.05452,2.73986 3.03452,2.72086 3.53431,2.19338 3.55443,2.21238 "/>
   <polygon id="_116980040" class="fil7" points="2.94102,2.6322 2.92103,2.61333 3.42082,2.08584 3.44094,2.10484 "/>
   <path id="_116979968" class="fil6" d="M2.04189 0.939982l-0.115232 -0.0665563 0 -0.132988 0.115232 -0.0665563 0.115357 0.0665563 0 0.129014 0 0.00397351 -0.115357 0.0665563m0 -0.250206l-0.10145 0.0586093 0 0.117093 0.10145 0.0586093 0.10145 -0.0585858 0 -0.117117 -0.10145 -0.0586093z"/>
   <path id="_116979536" class="fil6" d="M9.6231 0.343955l-0.115232 -0.0665563 0 -0.132988 0.115232 -0.0665563 0.115232 0.0665563 0 0.129014 0 0.00397351 -0.115232 0.0665563m0 -0.250206l-0.101442 0.0586093 0 0.117093 0.101442 0.0586093 0.101454 -0.0585858 0 -0.117117 -0.101454 -0.0586093z"/>
   <polygon id="_116977208" class="fil0" points="3.50753,4.77933 4.0524,5.3242 3.50753,5.3242 "/>
   <path id="_116099344" class="fil0" d="M8.62336 5.23392c-0.172957,0 -0.313082,-0.140211 -0.313082,-0.313086 0,-0.172961 0.140125,-0.313168 0.313082,-0.313168 0.172961,-3.91094e-006 0.313082,0.140211 0.313082,0.313168 0,0.172871 -0.140121,0.313086 -0.313082,0.313086z"/>
  </g>
 </g>
</svg>
